<svg width="692" height="224" viewBox="0 0 692 224" fill="none" xmlns="http://www.w3.org/2000/svg">
<path d="M138.667 111.881H186.26" stroke="#00B1D3" stroke-width="11.0015"/>
<path d="M109.01 32L109.01 82.2242" stroke="#00B1D3" stroke-width="11.0015"/>
<path d="M57.3513 52.8066L57.3513 67.1564" stroke="#00B1D3" stroke-width="14.3498"/>
<path d="M57.3513 157.082L57.3513 171.432" stroke="#00B1D3" stroke-width="14.3498"/>
<path d="M160.67 52.8066L160.67 67.1564" stroke="#00B1D3" stroke-width="14.3498"/>
<path d="M160.67 157.082L160.67 171.432" stroke="#00B1D3" stroke-width="14.3498"/>
<path d="M79.3542 82.4629L138.667 141.775" stroke="#00B1D3" stroke-width="11.0015"/>
<path d="M138.667 82.4629L79.3543 141.775" stroke="#00B1D3" stroke-width="11.0015"/>
<path d="M109.01 141.775L109.01 192" stroke="#00B1D3" stroke-width="11.0015"/>
<path d="M32 111.881H79.5934" stroke="#00B1D3" stroke-width="11.0015"/>
<mask id="path-11-outside-1_900_134955" maskUnits="userSpaceOnUse" x="220.26" y="77" width="437" height="70" fill="black">
<rect fill="white" x="220.26" y="77" width="437" height="70"/>
<path d="M221.976 145V98.08H231.084V109.12H231.544V145H221.976ZM253.624 145V114.364C253.624 111.175 252.888 108.844 251.416 107.372C249.944 105.9 247.828 105.164 245.068 105.164C242.492 105.164 240.161 105.777 238.076 107.004C236.052 108.169 234.457 109.825 233.292 111.972C232.127 114.057 231.544 116.541 231.544 119.424L230.348 108.476C231.881 104.98 234.181 102.22 237.248 100.196C240.376 98.172 243.872 97.16 247.736 97.16C252.397 97.16 256.108 98.5093 258.868 101.208C261.689 103.907 263.1 107.464 263.1 111.88V145H253.624ZM285.272 145V114.364C285.272 111.175 284.505 108.844 282.972 107.372C281.5 105.9 279.384 105.164 276.624 105.164C274.109 105.164 271.809 105.777 269.724 107.004C267.7 108.169 266.075 109.825 264.848 111.972C263.683 114.057 263.1 116.541 263.1 119.424L261.168 108.476C262.763 104.98 265.155 102.22 268.344 100.196C271.595 98.172 275.213 97.16 279.2 97.16C283.923 97.16 287.695 98.54 290.516 101.3C293.337 103.999 294.748 107.617 294.748 112.156V145H285.272ZM306.498 145V98.08H316.066V145H306.498ZM306.038 88.88V78.116H316.618V88.88H306.038ZM347.902 145.92C343.425 145.92 339.438 144.877 335.942 142.792C332.446 140.645 329.686 137.732 327.662 134.052C325.699 130.372 324.718 126.171 324.718 121.448C324.718 116.725 325.699 112.555 327.662 108.936C329.686 105.256 332.446 102.373 335.942 100.288C339.438 98.2027 343.394 97.16 347.81 97.16C351.551 97.16 354.894 97.8653 357.838 99.276C360.782 100.687 363.205 102.649 365.106 105.164C367.007 107.679 368.234 110.653 368.786 114.088H359.77C359.157 111.328 357.807 109.12 355.722 107.464C353.698 105.808 351.122 104.98 347.994 104.98C345.295 104.98 342.934 105.655 340.91 107.004C338.886 108.353 337.322 110.255 336.218 112.708C335.114 115.161 334.562 118.075 334.562 121.448C334.562 124.76 335.114 127.673 336.218 130.188C337.322 132.703 338.886 134.665 340.91 136.076C342.934 137.425 345.326 138.1 348.086 138.1C351.091 138.1 353.637 137.303 355.722 135.708C357.869 134.052 359.249 131.844 359.862 129.084H368.878C368.265 132.457 366.977 135.401 365.014 137.916C363.113 140.431 360.69 142.393 357.746 143.804C354.802 145.215 351.521 145.92 347.902 145.92ZM377.431 145V98.08H386.539V109.764H386.999V145H377.431ZM386.999 120.528L385.803 109.396C386.907 105.409 388.808 102.373 391.507 100.288C394.206 98.2027 397.426 97.16 401.167 97.16C402.578 97.16 403.559 97.2827 404.111 97.528V106.544C403.804 106.421 403.375 106.36 402.823 106.36C402.271 106.299 401.596 106.268 400.799 106.268C396.199 106.268 392.734 107.464 390.403 109.856C388.134 112.248 386.999 115.805 386.999 120.528ZM431.884 145.92C427.1 145.92 422.899 144.877 419.28 142.792C415.662 140.645 412.84 137.732 410.816 134.052C408.792 130.311 407.78 126.079 407.78 121.356C407.78 116.572 408.792 112.371 410.816 108.752C412.902 105.133 415.723 102.312 419.28 100.288C422.899 98.2027 427.1 97.16 431.884 97.16C436.73 97.16 440.962 98.2027 444.58 100.288C448.199 102.312 450.99 105.133 452.952 108.752C454.976 112.371 455.988 116.572 455.988 121.356C455.988 126.079 454.976 130.311 452.952 134.052C450.99 137.732 448.199 140.645 444.58 142.792C440.962 144.877 436.73 145.92 431.884 145.92ZM431.884 138.1C434.767 138.1 437.251 137.395 439.336 135.984C441.483 134.573 443.17 132.611 444.396 130.096C445.623 127.581 446.236 124.637 446.236 121.264C446.236 116.235 444.887 112.279 442.188 109.396C439.551 106.452 436.116 104.98 431.884 104.98C427.714 104.98 424.279 106.452 421.58 109.396C418.943 112.34 417.624 116.296 417.624 121.264C417.624 124.637 418.207 127.581 419.372 130.096C420.599 132.611 422.286 134.573 424.432 135.984C426.64 137.395 429.124 138.1 431.884 138.1ZM464.896 145V98.08H474.004V109.12H474.464V145H464.896ZM496.544 145V114.364C496.544 111.175 495.808 108.844 494.336 107.372C492.864 105.9 490.748 105.164 487.988 105.164C485.412 105.164 483.081 105.777 480.996 107.004C478.972 108.169 477.377 109.825 476.212 111.972C475.046 114.057 474.464 116.541 474.464 119.424L473.268 108.476C474.801 104.98 477.101 102.22 480.168 100.196C483.296 98.172 486.792 97.16 490.656 97.16C495.317 97.16 499.028 98.5093 501.788 101.208C504.609 103.907 506.02 107.464 506.02 111.88V145H496.544ZM528.192 145V114.364C528.192 111.175 527.425 108.844 525.892 107.372C524.42 105.9 522.304 105.164 519.544 105.164C517.029 105.164 514.729 105.777 512.644 107.004C510.62 108.169 508.994 109.825 507.768 111.972C506.602 114.057 506.02 116.541 506.02 119.424L504.088 108.476C505.682 104.98 508.074 102.22 511.264 100.196C514.514 98.172 518.133 97.16 522.12 97.16C526.842 97.16 530.614 98.54 533.436 101.3C536.257 103.999 537.668 107.617 537.668 112.156V145H528.192ZM549.417 145V98.08H558.985V145H549.417ZM548.957 88.88V78.116H559.537V88.88H548.957ZM568.125 145V138.284L595.817 101.852L598.577 105.716H568.953V98.08H605.109V104.796L577.509 141.044L574.841 137.364H605.845V145H568.125ZM633.852 145.92C629.13 145.92 624.959 144.877 621.34 142.792C617.783 140.707 614.992 137.824 612.968 134.144C610.944 130.464 609.932 126.232 609.932 121.448C609.932 116.603 610.914 112.371 612.876 108.752C614.9 105.072 617.722 102.22 621.34 100.196C624.959 98.172 629.099 97.16 633.76 97.16C638.299 97.16 642.224 98.1413 645.536 100.104C648.91 102.005 651.486 104.673 653.264 108.108C655.104 111.543 656.024 115.621 656.024 120.344C656.024 121.08 655.994 121.785 655.932 122.46C655.932 123.073 655.871 123.717 655.748 124.392H616.372V117.216H649.032L646.64 120.068C646.64 115.039 645.506 111.205 643.236 108.568C640.967 105.931 637.808 104.612 633.76 104.612C629.406 104.612 625.94 106.115 623.364 109.12C620.85 112.064 619.592 116.173 619.592 121.448C619.592 126.784 620.85 130.955 623.364 133.96C625.94 136.965 629.498 138.468 634.036 138.468C636.796 138.468 639.188 137.916 641.212 136.812C643.236 135.647 644.739 133.96 645.72 131.752H654.736C653.203 136.168 650.596 139.633 646.916 142.148C643.298 144.663 638.943 145.92 633.852 145.92Z"/>
</mask>
<path d="M221.976 145V98.08H231.084V109.12H231.544V145H221.976ZM253.624 145V114.364C253.624 111.175 252.888 108.844 251.416 107.372C249.944 105.9 247.828 105.164 245.068 105.164C242.492 105.164 240.161 105.777 238.076 107.004C236.052 108.169 234.457 109.825 233.292 111.972C232.127 114.057 231.544 116.541 231.544 119.424L230.348 108.476C231.881 104.98 234.181 102.22 237.248 100.196C240.376 98.172 243.872 97.16 247.736 97.16C252.397 97.16 256.108 98.5093 258.868 101.208C261.689 103.907 263.1 107.464 263.1 111.88V145H253.624ZM285.272 145V114.364C285.272 111.175 284.505 108.844 282.972 107.372C281.5 105.9 279.384 105.164 276.624 105.164C274.109 105.164 271.809 105.777 269.724 107.004C267.7 108.169 266.075 109.825 264.848 111.972C263.683 114.057 263.1 116.541 263.1 119.424L261.168 108.476C262.763 104.98 265.155 102.22 268.344 100.196C271.595 98.172 275.213 97.16 279.2 97.16C283.923 97.16 287.695 98.54 290.516 101.3C293.337 103.999 294.748 107.617 294.748 112.156V145H285.272ZM306.498 145V98.08H316.066V145H306.498ZM306.038 88.88V78.116H316.618V88.88H306.038ZM347.902 145.92C343.425 145.92 339.438 144.877 335.942 142.792C332.446 140.645 329.686 137.732 327.662 134.052C325.699 130.372 324.718 126.171 324.718 121.448C324.718 116.725 325.699 112.555 327.662 108.936C329.686 105.256 332.446 102.373 335.942 100.288C339.438 98.2027 343.394 97.16 347.81 97.16C351.551 97.16 354.894 97.8653 357.838 99.276C360.782 100.687 363.205 102.649 365.106 105.164C367.007 107.679 368.234 110.653 368.786 114.088H359.77C359.157 111.328 357.807 109.12 355.722 107.464C353.698 105.808 351.122 104.98 347.994 104.98C345.295 104.98 342.934 105.655 340.91 107.004C338.886 108.353 337.322 110.255 336.218 112.708C335.114 115.161 334.562 118.075 334.562 121.448C334.562 124.76 335.114 127.673 336.218 130.188C337.322 132.703 338.886 134.665 340.91 136.076C342.934 137.425 345.326 138.1 348.086 138.1C351.091 138.1 353.637 137.303 355.722 135.708C357.869 134.052 359.249 131.844 359.862 129.084H368.878C368.265 132.457 366.977 135.401 365.014 137.916C363.113 140.431 360.69 142.393 357.746 143.804C354.802 145.215 351.521 145.92 347.902 145.92ZM377.431 145V98.08H386.539V109.764H386.999V145H377.431ZM386.999 120.528L385.803 109.396C386.907 105.409 388.808 102.373 391.507 100.288C394.206 98.2027 397.426 97.16 401.167 97.16C402.578 97.16 403.559 97.2827 404.111 97.528V106.544C403.804 106.421 403.375 106.36 402.823 106.36C402.271 106.299 401.596 106.268 400.799 106.268C396.199 106.268 392.734 107.464 390.403 109.856C388.134 112.248 386.999 115.805 386.999 120.528ZM431.884 145.92C427.1 145.92 422.899 144.877 419.28 142.792C415.662 140.645 412.84 137.732 410.816 134.052C408.792 130.311 407.78 126.079 407.78 121.356C407.78 116.572 408.792 112.371 410.816 108.752C412.902 105.133 415.723 102.312 419.28 100.288C422.899 98.2027 427.1 97.16 431.884 97.16C436.73 97.16 440.962 98.2027 444.58 100.288C448.199 102.312 450.99 105.133 452.952 108.752C454.976 112.371 455.988 116.572 455.988 121.356C455.988 126.079 454.976 130.311 452.952 134.052C450.99 137.732 448.199 140.645 444.58 142.792C440.962 144.877 436.73 145.92 431.884 145.92ZM431.884 138.1C434.767 138.1 437.251 137.395 439.336 135.984C441.483 134.573 443.17 132.611 444.396 130.096C445.623 127.581 446.236 124.637 446.236 121.264C446.236 116.235 444.887 112.279 442.188 109.396C439.551 106.452 436.116 104.98 431.884 104.98C427.714 104.98 424.279 106.452 421.58 109.396C418.943 112.34 417.624 116.296 417.624 121.264C417.624 124.637 418.207 127.581 419.372 130.096C420.599 132.611 422.286 134.573 424.432 135.984C426.64 137.395 429.124 138.1 431.884 138.1ZM464.896 145V98.08H474.004V109.12H474.464V145H464.896ZM496.544 145V114.364C496.544 111.175 495.808 108.844 494.336 107.372C492.864 105.9 490.748 105.164 487.988 105.164C485.412 105.164 483.081 105.777 480.996 107.004C478.972 108.169 477.377 109.825 476.212 111.972C475.046 114.057 474.464 116.541 474.464 119.424L473.268 108.476C474.801 104.98 477.101 102.22 480.168 100.196C483.296 98.172 486.792 97.16 490.656 97.16C495.317 97.16 499.028 98.5093 501.788 101.208C504.609 103.907 506.02 107.464 506.02 111.88V145H496.544ZM528.192 145V114.364C528.192 111.175 527.425 108.844 525.892 107.372C524.42 105.9 522.304 105.164 519.544 105.164C517.029 105.164 514.729 105.777 512.644 107.004C510.62 108.169 508.994 109.825 507.768 111.972C506.602 114.057 506.02 116.541 506.02 119.424L504.088 108.476C505.682 104.98 508.074 102.22 511.264 100.196C514.514 98.172 518.133 97.16 522.12 97.16C526.842 97.16 530.614 98.54 533.436 101.3C536.257 103.999 537.668 107.617 537.668 112.156V145H528.192ZM549.417 145V98.08H558.985V145H549.417ZM548.957 88.88V78.116H559.537V88.88H548.957ZM568.125 145V138.284L595.817 101.852L598.577 105.716H568.953V98.08H605.109V104.796L577.509 141.044L574.841 137.364H605.845V145H568.125ZM633.852 145.92C629.13 145.92 624.959 144.877 621.34 142.792C617.783 140.707 614.992 137.824 612.968 134.144C610.944 130.464 609.932 126.232 609.932 121.448C609.932 116.603 610.914 112.371 612.876 108.752C614.9 105.072 617.722 102.22 621.34 100.196C624.959 98.172 629.099 97.16 633.76 97.16C638.299 97.16 642.224 98.1413 645.536 100.104C648.91 102.005 651.486 104.673 653.264 108.108C655.104 111.543 656.024 115.621 656.024 120.344C656.024 121.08 655.994 121.785 655.932 122.46C655.932 123.073 655.871 123.717 655.748 124.392H616.372V117.216H649.032L646.64 120.068C646.64 115.039 645.506 111.205 643.236 108.568C640.967 105.931 637.808 104.612 633.76 104.612C629.406 104.612 625.94 106.115 623.364 109.12C620.85 112.064 619.592 116.173 619.592 121.448C619.592 126.784 620.85 130.955 623.364 133.96C625.94 136.965 629.498 138.468 634.036 138.468C636.796 138.468 639.188 137.916 641.212 136.812C643.236 135.647 644.739 133.96 645.72 131.752H654.736C653.203 136.168 650.596 139.633 646.916 142.148C643.298 144.663 638.943 145.92 633.852 145.92Z" fill="#00B1D3"/>
<path d="M221.976 145H220.976V146H221.976V145ZM221.976 98.08V97.08H220.976V98.08H221.976ZM231.084 98.08H232.084V97.08H231.084V98.08ZM231.084 109.12H230.084V110.12H231.084V109.12ZM231.544 109.12H232.544V108.12H231.544V109.12ZM231.544 145V146H232.544V145H231.544ZM253.624 145H252.624V146H253.624V145ZM251.416 107.372L250.709 108.079L250.709 108.079L251.416 107.372ZM238.076 107.004L238.575 107.871L238.583 107.866L238.076 107.004ZM233.292 111.972L234.165 112.46L234.171 112.449L233.292 111.972ZM231.544 119.424L230.55 119.533L232.544 119.424H231.544ZM230.348 108.476L229.432 108.074L229.325 108.319L229.354 108.585L230.348 108.476ZM237.248 100.196L236.705 99.3564L236.697 99.3614L237.248 100.196ZM258.868 101.208L258.169 101.923L258.177 101.931L258.868 101.208ZM263.1 145V146H264.1V145H263.1ZM285.272 145H284.272V146H285.272V145ZM282.972 107.372L282.265 108.079L282.272 108.086L282.28 108.093L282.972 107.372ZM269.724 107.004L270.223 107.871L270.231 107.866L269.724 107.004ZM264.848 111.972L263.98 111.476L263.975 111.484L264.848 111.972ZM263.1 119.424L262.115 119.598L264.1 119.424H263.1ZM261.168 108.476L260.258 108.061L260.129 108.344L260.183 108.65L261.168 108.476ZM268.344 100.196L267.816 99.3471L267.808 99.3517L268.344 100.196ZM290.516 101.3L289.817 102.015L289.825 102.023L290.516 101.3ZM294.748 145V146H295.748V145H294.748ZM221.976 145H222.976V98.08H221.976H220.976V145H221.976ZM221.976 98.08V99.08H231.084V98.08V97.08H221.976V98.08ZM231.084 98.08H230.084V109.12H231.084H232.084V98.08H231.084ZM231.084 109.12V110.12H231.544V109.12V108.12H231.084V109.12ZM231.544 109.12H230.544V145H231.544H232.544V109.12H231.544ZM231.544 145V144H221.976V145V146H231.544V145ZM253.624 145H254.624V114.364H253.624H252.624V145H253.624ZM253.624 114.364H254.624C254.624 111.048 253.862 108.404 252.123 106.665L251.416 107.372L250.709 108.079C251.914 109.284 252.624 111.302 252.624 114.364H253.624ZM251.416 107.372L252.123 106.665C250.409 104.95 248.004 104.164 245.068 104.164V105.164V106.164C247.652 106.164 249.48 106.85 250.709 108.079L251.416 107.372ZM245.068 105.164V104.164C242.326 104.164 239.818 104.819 237.569 106.142L238.076 107.004L238.583 107.866C240.505 106.736 242.658 106.164 245.068 106.164V105.164ZM238.076 107.004L237.577 106.137C235.385 107.399 233.663 109.194 232.413 111.495L233.292 111.972L234.171 112.449C235.252 110.457 236.719 108.939 238.575 107.871L238.076 107.004ZM233.292 111.972L232.419 111.484C231.155 113.747 230.544 116.406 230.544 119.424H231.544H232.544C232.544 116.677 233.099 114.368 234.165 112.46L233.292 111.972ZM231.544 119.424L232.538 119.315L231.342 108.367L230.348 108.476L229.354 108.585L230.55 119.533L231.544 119.424ZM230.348 108.476L231.264 108.878C232.723 105.551 234.9 102.944 237.799 101.031L237.248 100.196L236.697 99.3614C233.463 101.496 231.04 104.409 229.432 108.074L230.348 108.476ZM237.248 100.196L237.791 101.036C240.751 99.1203 244.057 98.16 247.736 98.16V97.16V96.16C243.687 96.16 240.001 97.2237 236.705 99.3564L237.248 100.196ZM247.736 97.16V98.16C252.194 98.16 255.633 99.4438 258.169 101.923L258.868 101.208L259.567 100.493C256.583 97.5749 252.601 96.16 247.736 96.16V97.16ZM258.868 101.208L258.177 101.931C260.774 104.415 262.1 107.698 262.1 111.88H263.1H264.1C264.1 107.23 262.605 103.398 259.559 100.485L258.868 101.208ZM263.1 111.88H262.1V145H263.1H264.1V111.88H263.1ZM263.1 145V144H253.624V145V146H263.1V145ZM285.272 145H286.272V114.364H285.272H284.272V145H285.272ZM285.272 114.364H286.272C286.272 111.038 285.474 108.388 283.665 106.651L282.972 107.372L282.28 108.093C283.537 109.3 284.272 111.311 284.272 114.364H285.272ZM282.972 107.372L283.679 106.665C281.965 104.95 279.56 104.164 276.624 104.164V105.164V106.164C279.208 106.164 281.036 106.85 282.265 108.079L282.972 107.372ZM276.624 105.164V104.164C273.939 104.164 271.462 104.821 269.217 106.142L269.724 107.004L270.231 107.866C272.157 106.733 274.28 106.164 276.624 106.164V105.164ZM269.724 107.004L269.225 106.137C267.038 107.396 265.289 109.185 263.98 111.476L264.848 111.972L265.716 112.468C266.86 110.466 268.362 108.942 270.223 107.871L269.724 107.004ZM264.848 111.972L263.975 111.484C262.711 113.747 262.1 116.406 262.1 119.424H263.1H264.1C264.1 116.677 264.655 114.368 265.721 112.46L264.848 111.972ZM263.1 119.424L264.085 119.25L262.153 108.302L261.168 108.476L260.183 108.65L262.115 119.598L263.1 119.424ZM261.168 108.476L262.078 108.891C263.594 105.568 265.857 102.959 268.88 101.04L268.344 100.196L267.808 99.3517C264.452 101.481 261.932 104.392 260.258 108.061L261.168 108.476ZM268.344 100.196L268.873 101.045C271.958 99.1238 275.392 98.16 279.2 98.16V97.16V96.16C275.035 96.16 271.232 97.2202 267.816 99.3471L268.344 100.196ZM279.2 97.16V98.16C283.716 98.16 287.218 99.4727 289.817 102.015L290.516 101.3L291.215 100.585C288.171 97.6073 284.129 96.16 279.2 96.16V97.16ZM290.516 101.3L289.825 102.023C292.417 104.502 293.748 107.842 293.748 112.156H294.748H295.748C295.748 107.393 294.258 103.496 291.207 100.577L290.516 101.3ZM294.748 112.156H293.748V145H294.748H295.748V112.156H294.748ZM294.748 145V144H285.272V145V146H294.748V145ZM306.498 145H305.498V146H306.498V145ZM306.498 98.08V97.08H305.498V98.08H306.498ZM316.066 98.08H317.066V97.08H316.066V98.08ZM316.066 145V146H317.066V145H316.066ZM306.038 88.88H305.038V89.88H306.038V88.88ZM306.038 78.116V77.116H305.038V78.116H306.038ZM316.618 78.116H317.618V77.116H316.618V78.116ZM316.618 88.88V89.88H317.618V88.88H316.618ZM306.498 145H307.498V98.08H306.498H305.498V145H306.498ZM306.498 98.08V99.08H316.066V98.08V97.08H306.498V98.08ZM316.066 98.08H315.066V145H316.066H317.066V98.08H316.066ZM316.066 145V144H306.498V145V146H316.066V145ZM306.038 88.88H307.038V78.116H306.038H305.038V88.88H306.038ZM306.038 78.116V79.116H316.618V78.116V77.116H306.038V78.116ZM316.618 78.116H315.618V88.88H316.618H317.618V78.116H316.618ZM316.618 88.88V87.88H306.038V88.88V89.88H316.618V88.88ZM335.942 142.792L335.419 143.644L335.43 143.651L335.942 142.792ZM327.662 134.052L326.779 134.523L326.786 134.534L327.662 134.052ZM327.662 108.936L326.786 108.454L326.783 108.459L327.662 108.936ZM335.942 100.288L335.43 99.4292L335.43 99.4292L335.942 100.288ZM357.838 99.276L357.406 100.178L357.406 100.178L357.838 99.276ZM365.106 105.164L365.904 104.561L365.904 104.561L365.106 105.164ZM368.786 114.088V115.088H369.959L369.773 113.929L368.786 114.088ZM359.77 114.088L358.794 114.305L358.968 115.088H359.77V114.088ZM355.722 107.464L355.089 108.238L355.094 108.243L355.1 108.247L355.722 107.464ZM340.91 107.004L341.465 107.836L341.465 107.836L340.91 107.004ZM336.218 112.708L337.13 113.118L337.13 113.118L336.218 112.708ZM336.218 130.188L337.133 129.786L337.133 129.786L336.218 130.188ZM340.91 136.076L340.338 136.896L340.347 136.902L340.355 136.908L340.91 136.076ZM355.722 135.708L356.329 136.502L356.333 136.5L355.722 135.708ZM359.862 129.084V128.084H359.06L358.886 128.867L359.862 129.084ZM368.878 129.084L369.862 129.263L370.076 128.084H368.878V129.084ZM365.014 137.916L364.226 137.301L364.221 137.307L364.216 137.313L365.014 137.916ZM357.746 143.804L358.178 144.706L357.746 143.804ZM347.902 145.92V144.92C343.586 144.92 339.78 143.917 336.454 141.933L335.942 142.792L335.43 143.651C339.096 145.838 343.263 146.92 347.902 146.92V145.92ZM335.942 142.792L336.465 141.94C333.121 139.886 330.481 137.102 328.538 133.57L327.662 134.052L326.786 134.534C328.891 138.362 331.771 141.405 335.419 143.644L335.942 142.792ZM327.662 134.052L328.544 133.581C326.669 130.064 325.718 126.029 325.718 121.448H324.718H323.718C323.718 126.313 324.73 130.68 326.78 134.523L327.662 134.052ZM324.718 121.448H325.718C325.718 116.867 326.669 112.865 328.541 109.413L327.662 108.936L326.783 108.459C324.73 112.245 323.718 116.584 323.718 121.448H324.718ZM327.662 108.936L328.538 109.418C330.479 105.888 333.116 103.138 336.454 101.147L335.942 100.288L335.43 99.4292C331.776 101.609 328.892 104.624 326.786 108.454L327.662 108.936ZM335.942 100.288L336.454 101.147C339.782 99.1617 343.558 98.16 347.81 98.16V97.16V96.16C343.229 96.16 339.094 97.2437 335.43 99.4292L335.942 100.288ZM347.81 97.16V98.16C351.423 98.16 354.615 98.8406 357.406 100.178L357.838 99.276L358.27 98.3742C355.173 96.8901 351.679 96.16 347.81 96.16V97.16ZM357.838 99.276L357.406 100.178C360.211 101.522 362.507 103.384 364.308 105.767L365.106 105.164L365.904 104.561C363.902 101.914 361.353 99.8513 358.27 98.3742L357.838 99.276ZM365.106 105.164L364.308 105.767C366.101 108.138 367.27 110.956 367.799 114.247L368.786 114.088L369.773 113.929C369.198 110.35 367.913 107.219 365.904 104.561L365.106 105.164ZM368.786 114.088V113.088H359.77V114.088V115.088H368.786V114.088ZM359.77 114.088L360.746 113.871C360.086 110.902 358.62 108.489 356.344 106.681L355.722 107.464L355.1 108.247C356.994 109.751 358.227 111.754 358.794 114.305L359.77 114.088ZM355.722 107.464L356.355 106.69C354.119 104.861 351.306 103.98 347.994 103.98V104.98V105.98C350.938 105.98 353.277 106.755 355.089 108.238L355.722 107.464ZM347.994 104.98V103.98C345.12 103.98 342.561 104.701 340.355 106.172L340.91 107.004L341.465 107.836C343.307 106.608 345.47 105.98 347.994 105.98V104.98ZM340.91 107.004L340.355 106.172C338.159 107.636 336.479 109.692 335.306 112.298L336.218 112.708L337.13 113.118C338.165 110.818 339.613 109.07 341.465 107.836L340.91 107.004ZM336.218 112.708L335.306 112.298C334.131 114.908 333.562 117.968 333.562 121.448H334.562H335.562C335.562 118.181 336.097 115.414 337.13 113.118L336.218 112.708ZM334.562 121.448H333.562C333.562 124.87 334.132 127.925 335.302 130.59L336.218 130.188L337.133 129.786C336.095 127.421 335.562 124.65 335.562 121.448H334.562ZM336.218 130.188L335.302 130.59C336.472 133.253 338.146 135.369 340.338 136.896L340.91 136.076L341.482 135.256C339.625 133.962 338.172 132.152 337.133 129.786L336.218 130.188ZM340.91 136.076L340.355 136.908C342.565 138.381 345.156 139.1 348.086 139.1V138.1V137.1C345.496 137.1 343.303 136.469 341.465 135.244L340.91 136.076ZM348.086 138.1V139.1C351.278 139.1 354.045 138.249 356.329 136.502L355.722 135.708L355.114 134.914C353.228 136.356 350.905 137.1 348.086 137.1V138.1ZM355.722 135.708L356.333 136.5C358.673 134.694 360.176 132.279 360.838 129.301L359.862 129.084L358.886 128.867C358.321 131.409 357.064 133.41 355.111 134.916L355.722 135.708ZM359.862 129.084V130.084H368.878V129.084V128.084H359.862V129.084ZM368.878 129.084L367.894 128.905C367.307 132.132 366.081 134.923 364.226 137.301L365.014 137.916L365.802 138.531C367.872 135.88 369.222 132.783 369.862 129.263L368.878 129.084ZM365.014 137.916L364.216 137.313C362.415 139.696 360.119 141.558 357.314 142.902L357.746 143.804L358.178 144.706C361.261 143.229 363.81 141.166 365.812 138.519L365.014 137.916ZM357.746 143.804L357.314 142.902C354.519 144.241 351.387 144.92 347.902 144.92V145.92V146.92C351.654 146.92 355.085 146.188 358.178 144.706L357.746 143.804ZM377.431 145H376.431V146H377.431V145ZM377.431 98.08V97.08H376.431V98.08H377.431ZM386.539 98.08H387.539V97.08H386.539V98.08ZM386.539 109.764H385.539V110.764H386.539V109.764ZM386.999 109.764H387.999V108.764H386.999V109.764ZM386.999 145V146H387.999V145H386.999ZM386.999 120.528L386.005 120.635L387.999 120.528H386.999ZM385.803 109.396L384.839 109.129L384.788 109.313L384.809 109.503L385.803 109.396ZM391.507 100.288L390.896 99.4967L391.507 100.288ZM404.111 97.528H405.111V96.8781L404.517 96.6142L404.111 97.528ZM404.111 106.544L403.74 107.472L405.111 108.021V106.544H404.111ZM402.823 106.36L402.713 107.354L402.768 107.36H402.823V106.36ZM390.403 109.856L389.687 109.158L389.678 109.168L390.403 109.856ZM377.431 145H378.431V98.08H377.431H376.431V145H377.431ZM377.431 98.08V99.08H386.539V98.08V97.08H377.431V98.08ZM386.539 98.08H385.539V109.764H386.539H387.539V98.08H386.539ZM386.539 109.764V110.764H386.999V109.764V108.764H386.539V109.764ZM386.999 109.764H385.999V145H386.999H387.999V109.764H386.999ZM386.999 145V144H377.431V145V146H386.999V145ZM386.999 120.528L387.993 120.421L386.797 109.289L385.803 109.396L384.809 109.503L386.005 120.635L386.999 120.528ZM385.803 109.396L386.767 109.663C387.826 105.839 389.625 103.006 392.118 101.079L391.507 100.288L390.896 99.4967C387.992 101.74 385.988 104.98 384.839 109.129L385.803 109.396ZM391.507 100.288L392.118 101.079C394.625 99.1425 397.624 98.16 401.167 98.16V97.16V96.16C397.227 96.16 393.787 97.2628 390.896 99.4967L391.507 100.288ZM401.167 97.16V98.16C402.576 98.16 403.365 98.2908 403.705 98.4418L404.111 97.528L404.517 96.6142C403.753 96.2745 402.579 96.16 401.167 96.16V97.16ZM404.111 97.528H403.111V106.544H404.111H405.111V97.528H404.111ZM404.111 106.544L404.482 105.616C404.004 105.424 403.428 105.36 402.823 105.36V106.36V107.36C403.322 107.36 403.604 107.418 403.74 107.472L404.111 106.544ZM402.823 106.36L402.933 105.366C402.333 105.299 401.619 105.268 400.799 105.268V106.268V107.268C401.574 107.268 402.209 107.298 402.713 107.354L402.823 106.36ZM400.799 106.268V105.268C396.034 105.268 392.268 106.509 389.687 109.158L390.403 109.856L391.119 110.554C393.2 108.419 396.364 107.268 400.799 107.268V106.268ZM390.403 109.856L389.678 109.168C387.168 111.813 385.999 115.66 385.999 120.528H386.999H387.999C387.999 115.951 389.099 112.683 391.128 110.544L390.403 109.856ZM419.28 142.792L418.77 143.652L418.781 143.658L419.28 142.792ZM410.816 134.052L409.937 134.528L409.94 134.534L410.816 134.052ZM410.816 108.752L409.95 108.253L409.943 108.264L410.816 108.752ZM419.28 100.288L419.775 101.157L419.78 101.154L419.28 100.288ZM444.58 100.288L444.081 101.154L444.092 101.161L444.58 100.288ZM452.952 108.752L452.073 109.229L452.079 109.24L452.952 108.752ZM452.952 134.052L452.073 133.576L452.07 133.581L452.952 134.052ZM444.58 142.792L445.08 143.658L445.09 143.652L444.58 142.792ZM439.336 135.984L438.787 135.148L438.776 135.156L439.336 135.984ZM444.396 130.096L445.295 130.534L445.295 130.534L444.396 130.096ZM442.188 109.396L441.443 110.063L441.451 110.071L441.458 110.079L442.188 109.396ZM421.58 109.396L420.843 108.72L420.835 108.729L421.58 109.396ZM419.372 130.096L418.465 130.516L418.469 130.525L418.473 130.534L419.372 130.096ZM424.432 135.984L423.883 136.82L423.894 136.827L424.432 135.984ZM431.884 145.92V144.92C427.25 144.92 423.225 143.911 419.78 141.926L419.28 142.792L418.781 143.658C422.572 145.843 426.951 146.92 431.884 146.92V145.92ZM419.28 142.792L419.79 141.932C416.325 139.876 413.63 137.093 411.692 133.57L410.816 134.052L409.94 134.534C412.05 138.371 414.998 141.414 418.77 143.652L419.28 142.792ZM410.816 134.052L411.696 133.576C409.759 129.997 408.78 125.931 408.78 121.356H407.78H406.78C406.78 126.226 407.825 130.625 409.937 134.528L410.816 134.052ZM407.78 121.356H408.78C408.78 116.716 409.76 112.688 411.689 109.24L410.816 108.752L409.943 108.264C407.824 112.053 406.78 116.428 406.78 121.356H407.78ZM410.816 108.752L411.683 109.251C413.681 105.784 416.375 103.091 419.775 101.157L419.28 100.288L418.786 99.4188C415.07 101.533 412.122 104.483 409.95 108.253L410.816 108.752ZM419.28 100.288L419.78 101.154C423.225 99.1687 427.25 98.16 431.884 98.16V97.16V96.16C426.951 96.16 422.572 97.2367 418.781 99.4216L419.28 100.288ZM431.884 97.16V98.16C436.583 98.16 440.637 99.1698 444.081 101.154L444.58 100.288L445.08 99.4216C441.286 97.2356 436.876 96.16 431.884 96.16V97.16ZM444.58 100.288L444.092 101.161C447.547 103.093 450.201 105.778 452.073 109.229L452.952 108.752L453.831 108.275C451.778 104.489 448.851 101.531 445.068 99.4152L444.58 100.288ZM452.952 108.752L452.079 109.24C454.008 112.688 454.988 116.716 454.988 121.356H455.988H456.988C456.988 116.428 455.944 112.053 453.825 108.264L452.952 108.752ZM455.988 121.356H454.988C454.988 125.931 454.009 129.997 452.073 133.576L452.952 134.052L453.832 134.528C455.943 130.625 456.988 126.226 456.988 121.356H455.988ZM452.952 134.052L452.07 133.581C450.194 137.098 447.533 139.878 444.07 141.932L444.58 142.792L445.09 143.652C448.865 141.413 451.785 138.366 453.835 134.523L452.952 134.052ZM444.58 142.792L444.081 141.926C440.637 143.91 436.583 144.92 431.884 144.92V145.92V146.92C436.876 146.92 441.286 145.844 445.08 143.658L444.58 142.792ZM431.884 138.1V139.1C434.937 139.1 437.623 138.35 439.897 136.812L439.336 135.984L438.776 135.156C436.879 136.439 434.597 137.1 431.884 137.1V138.1ZM439.336 135.984L439.885 136.82C442.195 135.302 443.997 133.196 445.295 130.534L444.396 130.096L443.497 129.658C442.342 132.026 440.77 133.845 438.787 135.148L439.336 135.984ZM444.396 130.096L445.295 130.534C446.601 127.858 447.236 124.758 447.236 121.264H446.236H445.236C445.236 124.516 444.645 127.305 443.497 129.658L444.396 130.096ZM446.236 121.264H447.236C447.236 116.053 445.834 111.827 442.918 108.713L442.188 109.396L441.458 110.079C443.94 112.73 445.236 116.416 445.236 121.264H446.236ZM442.188 109.396L442.933 108.729C440.091 105.557 436.378 103.98 431.884 103.98V104.98V105.98C435.855 105.98 439.01 107.347 441.443 110.063L442.188 109.396ZM431.884 104.98V103.98C427.447 103.98 423.74 105.56 420.843 108.72L421.58 109.396L422.317 110.072C424.817 107.344 427.98 105.98 431.884 105.98V104.98ZM421.58 109.396L420.835 108.729C417.995 111.9 416.624 116.115 416.624 121.264H417.624H418.624C418.624 116.477 419.891 112.78 422.325 110.063L421.58 109.396ZM417.624 121.264H416.624C416.624 124.752 417.227 127.845 418.465 130.516L419.372 130.096L420.28 129.676C419.187 127.318 418.624 124.523 418.624 121.264H417.624ZM419.372 130.096L418.473 130.534C419.772 133.196 421.573 135.302 423.883 136.82L424.432 135.984L424.981 135.148C422.998 133.845 421.426 132.026 420.271 129.658L419.372 130.096ZM424.432 135.984L423.894 136.827C426.271 138.346 428.944 139.1 431.884 139.1V138.1V137.1C429.304 137.1 427.009 136.444 424.971 135.141L424.432 135.984ZM464.896 145H463.896V146H464.896V145ZM464.896 98.08V97.08H463.896V98.08H464.896ZM474.004 98.08H475.004V97.08H474.004V98.08ZM474.004 109.12H473.004V110.12H474.004V109.12ZM474.464 109.12H475.464V108.12H474.464V109.12ZM474.464 145V146H475.464V145H474.464ZM496.544 145H495.544V146H496.544V145ZM494.336 107.372L493.629 108.079L493.629 108.079L494.336 107.372ZM480.996 107.004L481.495 107.871L481.503 107.866L480.996 107.004ZM476.212 111.972L477.085 112.46L477.091 112.449L476.212 111.972ZM474.464 119.424L473.47 119.533L475.464 119.424H474.464ZM473.268 108.476L472.352 108.074L472.245 108.319L472.274 108.585L473.268 108.476ZM480.168 100.196L479.624 99.3564L479.617 99.3614L480.168 100.196ZM501.788 101.208L501.089 101.923L501.096 101.931L501.788 101.208ZM506.02 145V146H507.02V145H506.02ZM528.192 145H527.192V146H528.192V145ZM525.892 107.372L525.185 108.079L525.192 108.086L525.199 108.093L525.892 107.372ZM512.644 107.004L513.143 107.871L513.151 107.866L512.644 107.004ZM507.768 111.972L506.899 111.476L506.895 111.484L507.768 111.972ZM506.02 119.424L505.035 119.598L507.02 119.424H506.02ZM504.088 108.476L503.178 108.061L503.049 108.344L503.103 108.65L504.088 108.476ZM511.264 100.196L510.735 99.3471L510.728 99.3517L511.264 100.196ZM533.436 101.3L532.736 102.015L532.744 102.023L533.436 101.3ZM537.668 145V146H538.668V145H537.668ZM464.896 145H465.896V98.08H464.896H463.896V145H464.896ZM464.896 98.08V99.08H474.004V98.08V97.08H464.896V98.08ZM474.004 98.08H473.004V109.12H474.004H475.004V98.08H474.004ZM474.004 109.12V110.12H474.464V109.12V108.12H474.004V109.12ZM474.464 109.12H473.464V145H474.464H475.464V109.12H474.464ZM474.464 145V144H464.896V145V146H474.464V145ZM496.544 145H497.544V114.364H496.544H495.544V145H496.544ZM496.544 114.364H497.544C497.544 111.048 496.782 108.404 495.043 106.665L494.336 107.372L493.629 108.079C494.834 109.284 495.544 111.302 495.544 114.364H496.544ZM494.336 107.372L495.043 106.665C493.328 104.95 490.923 104.164 487.988 104.164V105.164V106.164C490.572 106.164 492.399 106.85 493.629 108.079L494.336 107.372ZM487.988 105.164V104.164C485.245 104.164 482.738 104.819 480.489 106.142L480.996 107.004L481.503 107.866C483.424 106.736 485.578 106.164 487.988 106.164V105.164ZM480.996 107.004L480.497 106.137C478.305 107.399 476.582 109.194 475.333 111.495L476.212 111.972L477.091 112.449C478.172 110.457 479.638 108.939 481.495 107.871L480.996 107.004ZM476.212 111.972L475.339 111.484C474.074 113.747 473.464 116.406 473.464 119.424H474.464H475.464C475.464 116.677 476.018 114.368 477.085 112.46L476.212 111.972ZM474.464 119.424L475.458 119.315L474.262 108.367L473.268 108.476L472.274 108.585L473.47 119.533L474.464 119.424ZM473.268 108.476L474.183 108.878C475.643 105.551 477.819 102.944 480.718 101.031L480.168 100.196L479.617 99.3614C476.383 101.496 473.959 104.409 472.352 108.074L473.268 108.476ZM480.168 100.196L480.711 101.036C483.671 99.1203 486.977 98.16 490.656 98.16V97.16V96.16C486.606 96.16 482.92 97.2237 479.624 99.3564L480.168 100.196ZM490.656 97.16V98.16C495.113 98.16 498.553 99.4438 501.089 101.923L501.788 101.208L502.487 100.493C499.502 97.5749 495.521 96.16 490.656 96.16V97.16ZM501.788 101.208L501.096 101.931C503.694 104.415 505.02 107.698 505.02 111.88H506.02H507.02C507.02 107.23 505.524 103.398 502.479 100.485L501.788 101.208ZM506.02 111.88H505.02V145H506.02H507.02V111.88H506.02ZM506.02 145V144H496.544V145V146H506.02V145ZM528.192 145H529.192V114.364H528.192H527.192V145H528.192ZM528.192 114.364H529.192C529.192 111.038 528.394 108.388 526.584 106.651L525.892 107.372L525.199 108.093C526.456 109.3 527.192 111.311 527.192 114.364H528.192ZM525.892 107.372L526.599 106.665C524.884 104.95 522.479 104.164 519.544 104.164V105.164V106.164C522.128 106.164 523.955 106.85 525.185 108.079L525.892 107.372ZM519.544 105.164V104.164C516.858 104.164 514.382 104.821 512.137 106.142L512.644 107.004L513.151 107.866C515.076 106.733 517.2 106.164 519.544 106.164V105.164ZM512.644 107.004L512.145 106.137C509.958 107.396 508.209 109.185 506.899 111.476L507.768 111.972L508.636 112.468C509.78 110.466 511.282 108.942 513.143 107.871L512.644 107.004ZM507.768 111.972L506.895 111.484C505.63 113.747 505.02 116.406 505.02 119.424H506.02H507.02C507.02 116.677 507.574 114.368 508.641 112.46L507.768 111.972ZM506.02 119.424L507.004 119.25L505.072 108.302L504.088 108.476L503.103 108.65L505.035 119.598L506.02 119.424ZM504.088 108.476L504.997 108.891C506.513 105.568 508.777 102.959 511.799 101.04L511.264 100.196L510.728 99.3517C507.372 101.481 504.851 104.392 503.178 108.061L504.088 108.476ZM511.264 100.196L511.792 101.045C514.878 99.1238 518.312 98.16 522.12 98.16V97.16V96.16C517.954 96.16 514.151 97.2202 510.735 99.3471L511.264 100.196ZM522.12 97.16V98.16C526.636 98.16 530.138 99.4727 532.736 102.015L533.436 101.3L534.135 100.585C531.091 97.6073 527.049 96.16 522.12 96.16V97.16ZM533.436 101.3L532.744 102.023C535.336 104.502 536.668 107.842 536.668 112.156H537.668H538.668C538.668 107.393 537.178 103.496 534.127 100.577L533.436 101.3ZM537.668 112.156H536.668V145H537.668H538.668V112.156H537.668ZM537.668 145V144H528.192V145V146H537.668V145ZM549.417 145H548.417V146H549.417V145ZM549.417 98.08V97.08H548.417V98.08H549.417ZM558.985 98.08H559.985V97.08H558.985V98.08ZM558.985 145V146H559.985V145H558.985ZM548.957 88.88H547.957V89.88H548.957V88.88ZM548.957 78.116V77.116H547.957V78.116H548.957ZM559.537 78.116H560.537V77.116H559.537V78.116ZM559.537 88.88V89.88H560.537V88.88H559.537ZM549.417 145H550.417V98.08H549.417H548.417V145H549.417ZM549.417 98.08V99.08H558.985V98.08V97.08H549.417V98.08ZM558.985 98.08H557.985V145H558.985H559.985V98.08H558.985ZM558.985 145V144H549.417V145V146H558.985V145ZM548.957 88.88H549.957V78.116H548.957H547.957V88.88H548.957ZM548.957 78.116V79.116H559.537V78.116V77.116H548.957V78.116ZM559.537 78.116H558.537V88.88H559.537H560.537V78.116H559.537ZM559.537 88.88V87.88H548.957V88.88V89.88H559.537V88.88ZM568.125 145H567.125V146H568.125V145ZM568.125 138.284L567.329 137.679L567.125 137.947V138.284H568.125ZM595.817 101.852L596.631 101.271L595.842 100.167L595.021 101.247L595.817 101.852ZM598.577 105.716V106.716H600.521L599.391 105.135L598.577 105.716ZM568.953 105.716H567.953V106.716H568.953V105.716ZM568.953 98.08V97.08H567.953V98.08H568.953ZM605.109 98.08H606.109V97.08H605.109V98.08ZM605.109 104.796L605.905 105.402L606.109 105.133V104.796H605.109ZM577.509 141.044L576.7 141.631L577.49 142.721L578.305 141.65L577.509 141.044ZM574.841 137.364V136.364H572.881L574.032 137.951L574.841 137.364ZM605.845 137.364H606.845V136.364H605.845V137.364ZM605.845 145V146H606.845V145H605.845ZM568.125 145H569.125V138.284H568.125H567.125V145H568.125ZM568.125 138.284L568.922 138.889L596.614 102.457L595.817 101.852L595.021 101.247L567.329 137.679L568.125 138.284ZM595.817 101.852L595.004 102.433L597.764 106.297L598.577 105.716L599.391 105.135L596.631 101.271L595.817 101.852ZM598.577 105.716V104.716H568.953V105.716V106.716H598.577V105.716ZM568.953 105.716H569.953V98.08H568.953H567.953V105.716H568.953ZM568.953 98.08V99.08H605.109V98.08V97.08H568.953V98.08ZM605.109 98.08H604.109V104.796H605.109H606.109V98.08H605.109ZM605.109 104.796L604.314 104.19L576.714 140.438L577.509 141.044L578.305 141.65L605.905 105.402L605.109 104.796ZM577.509 141.044L578.319 140.457L575.651 136.777L574.841 137.364L574.032 137.951L576.7 141.631L577.509 141.044ZM574.841 137.364V138.364H605.845V137.364V136.364H574.841V137.364ZM605.845 137.364H604.845V145H605.845H606.845V137.364H605.845ZM605.845 145V144H568.125V145V146H605.845V145ZM621.34 142.792L620.835 143.655L620.841 143.658L621.34 142.792ZM612.968 134.144L612.092 134.626L612.092 134.626L612.968 134.144ZM612.876 108.752L612 108.27L611.997 108.275L612.876 108.752ZM621.34 100.196L621.828 101.069L621.828 101.069L621.34 100.196ZM645.536 100.104L645.026 100.964L645.036 100.97L645.045 100.975L645.536 100.104ZM653.264 108.108L652.376 108.568L652.383 108.58L653.264 108.108ZM655.932 122.46L654.936 122.369L654.932 122.415V122.46H655.932ZM655.748 124.392V125.392H656.583L656.732 124.571L655.748 124.392ZM616.372 124.392H615.372V125.392H616.372V124.392ZM616.372 117.216V116.216H615.372V117.216H616.372ZM649.032 117.216L649.798 117.859L651.176 116.216H649.032V117.216ZM646.64 120.068H645.64V122.816L647.406 120.711L646.64 120.068ZM643.236 108.568L643.994 107.916L643.994 107.916L643.236 108.568ZM623.364 109.12L622.605 108.469L622.604 108.471L623.364 109.12ZM623.364 133.96L622.597 134.602L622.605 134.611L623.364 133.96ZM641.212 136.812L641.691 137.69L641.701 137.684L641.711 137.679L641.212 136.812ZM645.72 131.752V130.752H645.07L644.806 131.346L645.72 131.752ZM654.736 131.752L655.681 132.08L656.142 130.752H654.736V131.752ZM646.916 142.148L646.352 141.322L646.346 141.327L646.916 142.148ZM633.852 145.92V144.92C629.281 144.92 625.287 143.912 621.84 141.926L621.34 142.792L620.841 143.658C624.63 145.842 628.978 146.92 633.852 146.92V145.92ZM621.34 142.792L621.846 141.929C618.447 139.937 615.783 137.187 613.844 133.662L612.968 134.144L612.092 134.626C614.201 138.461 617.119 141.476 620.835 143.655L621.34 142.792ZM612.968 134.144L613.844 133.662C611.912 130.149 610.932 126.087 610.932 121.448H609.932H608.932C608.932 126.377 609.976 130.779 612.092 134.626L612.968 134.144ZM609.932 121.448H610.932C610.932 116.74 611.885 112.677 613.755 109.229L612.876 108.752L611.997 108.275C609.942 112.064 608.932 116.466 608.932 121.448H609.932ZM612.876 108.752L613.752 109.234C615.687 105.716 618.375 103 621.828 101.069L621.34 100.196L620.852 99.3232C617.068 101.44 614.113 104.428 612 108.27L612.876 108.752ZM621.34 100.196L621.828 101.069C625.28 99.1381 629.248 98.16 633.76 98.16V97.16V96.16C628.95 96.16 624.638 97.2059 620.852 99.3232L621.34 100.196ZM633.76 97.16V98.16C638.152 98.16 641.894 99.1083 645.026 100.964L645.536 100.104L646.046 99.2437C642.554 97.1744 638.446 96.16 633.76 96.16V97.16ZM645.536 100.104L645.045 100.975C648.249 102.781 650.687 105.306 652.376 108.568L653.264 108.108L654.152 107.648C652.284 104.04 649.57 101.23 646.027 99.2328L645.536 100.104ZM653.264 108.108L652.383 108.58C654.13 111.842 655.024 115.751 655.024 120.344H656.024H657.024C657.024 115.491 656.078 111.243 654.146 107.636L653.264 108.108ZM656.024 120.344H655.024C655.024 121.052 654.995 121.727 654.936 122.369L655.932 122.46L656.928 122.551C656.992 121.843 657.024 121.108 657.024 120.344H656.024ZM655.932 122.46H654.932C654.932 123.007 654.878 123.591 654.764 124.213L655.748 124.392L656.732 124.571C656.864 123.844 656.932 123.14 656.932 122.46H655.932ZM655.748 124.392V123.392H616.372V124.392V125.392H655.748V124.392ZM616.372 124.392H617.372V117.216H616.372H615.372V124.392H616.372ZM616.372 117.216V118.216H649.032V117.216V116.216H616.372V117.216ZM649.032 117.216L648.266 116.573L645.874 119.425L646.64 120.068L647.406 120.711L649.798 117.859L649.032 117.216ZM646.64 120.068H647.64C647.64 114.904 646.477 110.801 643.994 107.916L643.236 108.568L642.478 109.22C644.535 111.61 645.64 115.173 645.64 120.068H646.64ZM643.236 108.568L643.994 107.916C641.503 105.021 638.047 103.612 633.76 103.612V104.612V105.612C637.57 105.612 640.431 106.841 642.478 109.22L643.236 108.568ZM633.76 104.612V103.612C629.147 103.612 625.391 105.218 622.605 108.469L623.364 109.12L624.123 109.771C626.489 107.011 629.665 105.612 633.76 105.612V104.612ZM623.364 109.12L622.604 108.471C619.886 111.652 618.592 116.022 618.592 121.448H619.592H620.592C620.592 116.325 621.813 112.476 624.125 109.769L623.364 109.12ZM619.592 121.448H618.592C618.592 126.934 619.885 131.361 622.597 134.602L623.364 133.96L624.131 133.318C621.814 130.549 620.592 126.634 620.592 121.448H619.592ZM623.364 133.96L622.605 134.611C625.4 137.872 629.253 139.468 634.036 139.468V138.468V137.468C629.742 137.468 626.481 136.059 624.123 133.309L623.364 133.96ZM634.036 138.468V139.468C636.931 139.468 639.494 138.888 641.691 137.69L641.212 136.812L640.733 135.934C638.883 136.944 636.662 137.468 634.036 137.468V138.468ZM641.212 136.812L641.711 137.679C643.925 136.404 645.57 134.553 646.634 132.158L645.72 131.752L644.806 131.346C643.908 133.367 642.547 134.89 640.713 135.945L641.212 136.812ZM645.72 131.752V132.752H654.736V131.752V130.752H645.72V131.752ZM654.736 131.752L653.792 131.424C652.325 135.648 649.846 138.935 646.352 141.322L646.916 142.148L647.48 142.974C651.346 140.332 654.081 136.688 655.681 132.08L654.736 131.752ZM646.916 142.148L646.346 141.327C642.919 143.708 638.772 144.92 633.852 144.92V145.92V146.92C639.114 146.92 643.676 145.618 647.487 142.969L646.916 142.148Z" fill="#00B1D3" mask="url(#path-11-outside-1_900_134955)"/>
</svg>