<svg width="444" height="476" viewBox="0 0 444 476" fill="none" xmlns="http://www.w3.org/2000/svg">
<path d="M283.75 167H383.25" stroke="#00B1D3" stroke-width="23"/>
<path d="M221.75 0L221.75 105" stroke="#00B1D3" stroke-width="23"/>
<path d="M113.75 43.5L113.75 73.5" stroke="#00B1D3" stroke-width="30"/>
<path d="M113.75 261.5L113.75 291.5" stroke="#00B1D3" stroke-width="30"/>
<path d="M329.75 43.5L329.75 73.5" stroke="#00B1D3" stroke-width="30"/>
<path d="M329.75 261.5L329.75 291.5" stroke="#00B1D3" stroke-width="30"/>
<path d="M159.75 105.5L283.75 229.5" stroke="#00B1D3" stroke-width="23"/>
<path d="M283.75 105.5L159.75 229.5" stroke="#00B1D3" stroke-width="23"/>
<path d="M221.75 229.5L221.75 334.5" stroke="#00B1D3" stroke-width="23"/>
<path d="M60.75 167H160.25" stroke="#00B1D3" stroke-width="23"/>
<mask id="path-11-outside-1_900_134954" maskUnits="userSpaceOnUse" x="5" y="384.5" width="437" height="70" fill="black">
<rect fill="white" x="5" y="384.5" width="437" height="70"/>
<path d="M6.716 452.5V405.58H15.824V416.62H16.284V452.5H6.716ZM38.364 452.5V421.864C38.364 418.675 37.628 416.344 36.156 414.872C34.684 413.4 32.568 412.664 29.808 412.664C27.232 412.664 24.9013 413.277 22.816 414.504C20.792 415.669 19.1973 417.325 18.032 419.472C16.8667 421.557 16.284 424.041 16.284 426.924L15.088 415.976C16.6213 412.48 18.9213 409.72 21.988 407.696C25.116 405.672 28.612 404.66 32.476 404.66C37.1373 404.66 40.848 406.009 43.608 408.708C46.4293 411.407 47.84 414.964 47.84 419.38V452.5H38.364ZM70.012 452.5V421.864C70.012 418.675 69.2453 416.344 67.712 414.872C66.24 413.4 64.124 412.664 61.364 412.664C58.8493 412.664 56.5493 413.277 54.464 414.504C52.44 415.669 50.8147 417.325 49.588 419.472C48.4227 421.557 47.84 424.041 47.84 426.924L45.908 415.976C47.5027 412.48 49.8947 409.72 53.084 407.696C56.3347 405.672 59.9533 404.66 63.94 404.66C68.6627 404.66 72.4347 406.04 75.256 408.8C78.0773 411.499 79.488 415.117 79.488 419.656V452.5H70.012ZM91.2374 452.5V405.58H100.805V452.5H91.2374ZM90.7774 396.38V385.616H101.357V396.38H90.7774ZM132.642 453.42C128.164 453.42 124.178 452.377 120.682 450.292C117.186 448.145 114.426 445.232 112.402 441.552C110.439 437.872 109.458 433.671 109.458 428.948C109.458 424.225 110.439 420.055 112.402 416.436C114.426 412.756 117.186 409.873 120.682 407.788C124.178 405.703 128.134 404.66 132.55 404.66C136.291 404.66 139.634 405.365 142.578 406.776C145.522 408.187 147.944 410.149 149.846 412.664C151.747 415.179 152.974 418.153 153.526 421.588H144.51C143.896 418.828 142.547 416.62 140.462 414.964C138.438 413.308 135.862 412.48 132.734 412.48C130.035 412.48 127.674 413.155 125.65 414.504C123.626 415.853 122.062 417.755 120.958 420.208C119.854 422.661 119.302 425.575 119.302 428.948C119.302 432.26 119.854 435.173 120.958 437.688C122.062 440.203 123.626 442.165 125.65 443.576C127.674 444.925 130.066 445.6 132.826 445.6C135.831 445.6 138.376 444.803 140.462 443.208C142.608 441.552 143.988 439.344 144.602 436.584H153.618C153.004 439.957 151.716 442.901 149.754 445.416C147.852 447.931 145.43 449.893 142.486 451.304C139.542 452.715 136.26 453.42 132.642 453.42ZM162.171 452.5V405.58H171.279V417.264H171.739V452.5H162.171ZM171.739 428.028L170.543 416.896C171.647 412.909 173.548 409.873 176.247 407.788C178.946 405.703 182.166 404.66 185.907 404.66C187.318 404.66 188.299 404.783 188.851 405.028V414.044C188.544 413.921 188.115 413.86 187.563 413.86C187.011 413.799 186.336 413.768 185.539 413.768C180.939 413.768 177.474 414.964 175.143 417.356C172.874 419.748 171.739 423.305 171.739 428.028ZM216.624 453.42C211.84 453.42 207.639 452.377 204.02 450.292C200.401 448.145 197.58 445.232 195.556 441.552C193.532 437.811 192.52 433.579 192.52 428.856C192.52 424.072 193.532 419.871 195.556 416.252C197.641 412.633 200.463 409.812 204.02 407.788C207.639 405.703 211.84 404.66 216.624 404.66C221.469 404.66 225.701 405.703 229.32 407.788C232.939 409.812 235.729 412.633 237.692 416.252C239.716 419.871 240.728 424.072 240.728 428.856C240.728 433.579 239.716 437.811 237.692 441.552C235.729 445.232 232.939 448.145 229.32 450.292C225.701 452.377 221.469 453.42 216.624 453.42ZM216.624 445.6C219.507 445.6 221.991 444.895 224.076 443.484C226.223 442.073 227.909 440.111 229.136 437.596C230.363 435.081 230.976 432.137 230.976 428.764C230.976 423.735 229.627 419.779 226.928 416.896C224.291 413.952 220.856 412.48 216.624 412.48C212.453 412.48 209.019 413.952 206.32 416.896C203.683 419.84 202.364 423.796 202.364 428.764C202.364 432.137 202.947 435.081 204.112 437.596C205.339 440.111 207.025 442.073 209.172 443.484C211.38 444.895 213.864 445.6 216.624 445.6ZM249.636 452.5V405.58H258.744V416.62H259.204V452.5H249.636ZM281.284 452.5V421.864C281.284 418.675 280.548 416.344 279.076 414.872C277.604 413.4 275.488 412.664 272.728 412.664C270.152 412.664 267.821 413.277 265.736 414.504C263.712 415.669 262.117 417.325 260.952 419.472C259.786 421.557 259.204 424.041 259.204 426.924L258.008 415.976C259.541 412.48 261.841 409.72 264.908 407.696C268.036 405.672 271.532 404.66 275.396 404.66C280.057 404.66 283.768 406.009 286.528 408.708C289.349 411.407 290.76 414.964 290.76 419.38V452.5H281.284ZM312.932 452.5V421.864C312.932 418.675 312.165 416.344 310.632 414.872C309.16 413.4 307.044 412.664 304.284 412.664C301.769 412.664 299.469 413.277 297.384 414.504C295.36 415.669 293.734 417.325 292.508 419.472C291.342 421.557 290.76 424.041 290.76 426.924L288.828 415.976C290.422 412.48 292.814 409.72 296.004 407.696C299.254 405.672 302.873 404.66 306.86 404.66C311.582 404.66 315.354 406.04 318.176 408.8C320.997 411.499 322.408 415.117 322.408 419.656V452.5H312.932ZM334.157 452.5V405.58H343.725V452.5H334.157ZM333.697 396.38V385.616H344.277V396.38H333.697ZM352.865 452.5V445.784L380.557 409.352L383.317 413.216H353.693V405.58H389.849V412.296L362.249 448.544L359.581 444.864H390.585V452.5H352.865ZM418.592 453.42C413.869 453.42 409.699 452.377 406.08 450.292C402.523 448.207 399.732 445.324 397.708 441.644C395.684 437.964 394.672 433.732 394.672 428.948C394.672 424.103 395.653 419.871 397.616 416.252C399.64 412.572 402.461 409.72 406.08 407.696C409.699 405.672 413.839 404.66 418.5 404.66C423.039 404.66 426.964 405.641 430.276 407.604C433.649 409.505 436.225 412.173 438.004 415.608C439.844 419.043 440.764 423.121 440.764 427.844C440.764 428.58 440.733 429.285 440.672 429.96C440.672 430.573 440.611 431.217 440.488 431.892H401.112V424.716H433.772L431.38 427.568C431.38 422.539 430.245 418.705 427.976 416.068C425.707 413.431 422.548 412.112 418.5 412.112C414.145 412.112 410.68 413.615 408.104 416.62C405.589 419.564 404.332 423.673 404.332 428.948C404.332 434.284 405.589 438.455 408.104 441.46C410.68 444.465 414.237 445.968 418.776 445.968C421.536 445.968 423.928 445.416 425.952 444.312C427.976 443.147 429.479 441.46 430.46 439.252H439.476C437.943 443.668 435.336 447.133 431.656 449.648C428.037 452.163 423.683 453.42 418.592 453.42Z"/>
</mask>
<path d="M6.716 452.5V405.58H15.824V416.62H16.284V452.5H6.716ZM38.364 452.5V421.864C38.364 418.675 37.628 416.344 36.156 414.872C34.684 413.4 32.568 412.664 29.808 412.664C27.232 412.664 24.9013 413.277 22.816 414.504C20.792 415.669 19.1973 417.325 18.032 419.472C16.8667 421.557 16.284 424.041 16.284 426.924L15.088 415.976C16.6213 412.48 18.9213 409.72 21.988 407.696C25.116 405.672 28.612 404.66 32.476 404.66C37.1373 404.66 40.848 406.009 43.608 408.708C46.4293 411.407 47.84 414.964 47.84 419.38V452.5H38.364ZM70.012 452.5V421.864C70.012 418.675 69.2453 416.344 67.712 414.872C66.24 413.4 64.124 412.664 61.364 412.664C58.8493 412.664 56.5493 413.277 54.464 414.504C52.44 415.669 50.8147 417.325 49.588 419.472C48.4227 421.557 47.84 424.041 47.84 426.924L45.908 415.976C47.5027 412.48 49.8947 409.72 53.084 407.696C56.3347 405.672 59.9533 404.66 63.94 404.66C68.6627 404.66 72.4347 406.04 75.256 408.8C78.0773 411.499 79.488 415.117 79.488 419.656V452.5H70.012ZM91.2374 452.5V405.58H100.805V452.5H91.2374ZM90.7774 396.38V385.616H101.357V396.38H90.7774ZM132.642 453.42C128.164 453.42 124.178 452.377 120.682 450.292C117.186 448.145 114.426 445.232 112.402 441.552C110.439 437.872 109.458 433.671 109.458 428.948C109.458 424.225 110.439 420.055 112.402 416.436C114.426 412.756 117.186 409.873 120.682 407.788C124.178 405.703 128.134 404.66 132.55 404.66C136.291 404.66 139.634 405.365 142.578 406.776C145.522 408.187 147.944 410.149 149.846 412.664C151.747 415.179 152.974 418.153 153.526 421.588H144.51C143.896 418.828 142.547 416.62 140.462 414.964C138.438 413.308 135.862 412.48 132.734 412.48C130.035 412.48 127.674 413.155 125.65 414.504C123.626 415.853 122.062 417.755 120.958 420.208C119.854 422.661 119.302 425.575 119.302 428.948C119.302 432.26 119.854 435.173 120.958 437.688C122.062 440.203 123.626 442.165 125.65 443.576C127.674 444.925 130.066 445.6 132.826 445.6C135.831 445.6 138.376 444.803 140.462 443.208C142.608 441.552 143.988 439.344 144.602 436.584H153.618C153.004 439.957 151.716 442.901 149.754 445.416C147.852 447.931 145.43 449.893 142.486 451.304C139.542 452.715 136.26 453.42 132.642 453.42ZM162.171 452.5V405.58H171.279V417.264H171.739V452.5H162.171ZM171.739 428.028L170.543 416.896C171.647 412.909 173.548 409.873 176.247 407.788C178.946 405.703 182.166 404.66 185.907 404.66C187.318 404.66 188.299 404.783 188.851 405.028V414.044C188.544 413.921 188.115 413.86 187.563 413.86C187.011 413.799 186.336 413.768 185.539 413.768C180.939 413.768 177.474 414.964 175.143 417.356C172.874 419.748 171.739 423.305 171.739 428.028ZM216.624 453.42C211.84 453.42 207.639 452.377 204.02 450.292C200.401 448.145 197.58 445.232 195.556 441.552C193.532 437.811 192.52 433.579 192.52 428.856C192.52 424.072 193.532 419.871 195.556 416.252C197.641 412.633 200.463 409.812 204.02 407.788C207.639 405.703 211.84 404.66 216.624 404.66C221.469 404.66 225.701 405.703 229.32 407.788C232.939 409.812 235.729 412.633 237.692 416.252C239.716 419.871 240.728 424.072 240.728 428.856C240.728 433.579 239.716 437.811 237.692 441.552C235.729 445.232 232.939 448.145 229.32 450.292C225.701 452.377 221.469 453.42 216.624 453.42ZM216.624 445.6C219.507 445.6 221.991 444.895 224.076 443.484C226.223 442.073 227.909 440.111 229.136 437.596C230.363 435.081 230.976 432.137 230.976 428.764C230.976 423.735 229.627 419.779 226.928 416.896C224.291 413.952 220.856 412.48 216.624 412.48C212.453 412.48 209.019 413.952 206.32 416.896C203.683 419.84 202.364 423.796 202.364 428.764C202.364 432.137 202.947 435.081 204.112 437.596C205.339 440.111 207.025 442.073 209.172 443.484C211.38 444.895 213.864 445.6 216.624 445.6ZM249.636 452.5V405.58H258.744V416.62H259.204V452.5H249.636ZM281.284 452.5V421.864C281.284 418.675 280.548 416.344 279.076 414.872C277.604 413.4 275.488 412.664 272.728 412.664C270.152 412.664 267.821 413.277 265.736 414.504C263.712 415.669 262.117 417.325 260.952 419.472C259.786 421.557 259.204 424.041 259.204 426.924L258.008 415.976C259.541 412.48 261.841 409.72 264.908 407.696C268.036 405.672 271.532 404.66 275.396 404.66C280.057 404.66 283.768 406.009 286.528 408.708C289.349 411.407 290.76 414.964 290.76 419.38V452.5H281.284ZM312.932 452.5V421.864C312.932 418.675 312.165 416.344 310.632 414.872C309.16 413.4 307.044 412.664 304.284 412.664C301.769 412.664 299.469 413.277 297.384 414.504C295.36 415.669 293.734 417.325 292.508 419.472C291.342 421.557 290.76 424.041 290.76 426.924L288.828 415.976C290.422 412.48 292.814 409.72 296.004 407.696C299.254 405.672 302.873 404.66 306.86 404.66C311.582 404.66 315.354 406.04 318.176 408.8C320.997 411.499 322.408 415.117 322.408 419.656V452.5H312.932ZM334.157 452.5V405.58H343.725V452.5H334.157ZM333.697 396.38V385.616H344.277V396.38H333.697ZM352.865 452.5V445.784L380.557 409.352L383.317 413.216H353.693V405.58H389.849V412.296L362.249 448.544L359.581 444.864H390.585V452.5H352.865ZM418.592 453.42C413.869 453.42 409.699 452.377 406.08 450.292C402.523 448.207 399.732 445.324 397.708 441.644C395.684 437.964 394.672 433.732 394.672 428.948C394.672 424.103 395.653 419.871 397.616 416.252C399.64 412.572 402.461 409.72 406.08 407.696C409.699 405.672 413.839 404.66 418.5 404.66C423.039 404.66 426.964 405.641 430.276 407.604C433.649 409.505 436.225 412.173 438.004 415.608C439.844 419.043 440.764 423.121 440.764 427.844C440.764 428.58 440.733 429.285 440.672 429.96C440.672 430.573 440.611 431.217 440.488 431.892H401.112V424.716H433.772L431.38 427.568C431.38 422.539 430.245 418.705 427.976 416.068C425.707 413.431 422.548 412.112 418.5 412.112C414.145 412.112 410.68 413.615 408.104 416.62C405.589 419.564 404.332 423.673 404.332 428.948C404.332 434.284 405.589 438.455 408.104 441.46C410.68 444.465 414.237 445.968 418.776 445.968C421.536 445.968 423.928 445.416 425.952 444.312C427.976 443.147 429.479 441.46 430.46 439.252H439.476C437.943 443.668 435.336 447.133 431.656 449.648C428.037 452.163 423.683 453.42 418.592 453.42Z" fill="#00B1D3"/>
<path d="M6.716 452.5H5.716V453.5H6.716V452.5ZM6.716 405.58V404.58H5.716V405.58H6.716ZM15.824 405.58H16.824V404.58H15.824V405.58ZM15.824 416.62H14.824V417.62H15.824V416.62ZM16.284 416.62H17.284V415.62H16.284V416.62ZM16.284 452.5V453.5H17.284V452.5H16.284ZM38.364 452.5H37.364V453.5H38.364V452.5ZM36.156 414.872L35.4489 415.579L35.4489 415.579L36.156 414.872ZM22.816 414.504L23.315 415.371L23.323 415.366L22.816 414.504ZM18.032 419.472L18.905 419.96L18.9109 419.949L18.032 419.472ZM16.284 426.924L15.2899 427.033L17.284 426.924H16.284ZM15.088 415.976L14.1722 415.574L14.0649 415.819L14.0939 416.085L15.088 415.976ZM21.988 407.696L21.4447 406.856L21.4372 406.861L21.988 407.696ZM43.608 408.708L42.9088 409.423L42.9168 409.431L43.608 408.708ZM47.84 452.5V453.5H48.84V452.5H47.84ZM70.012 452.5H69.012V453.5H70.012V452.5ZM67.712 414.872L67.0049 415.579L67.0121 415.586L67.0195 415.593L67.712 414.872ZM54.464 414.504L54.963 415.371L54.971 415.366L54.464 414.504ZM49.588 419.472L48.7197 418.976L48.7151 418.984L49.588 419.472ZM47.84 426.924L46.8552 427.098L48.84 426.924H47.84ZM45.908 415.976L44.9982 415.561L44.8692 415.844L44.9232 416.15L45.908 415.976ZM53.084 407.696L52.5554 406.847L52.5482 406.852L53.084 407.696ZM75.256 408.8L74.5567 409.515L74.5648 409.523L75.256 408.8ZM79.488 452.5V453.5H80.488V452.5H79.488ZM6.716 452.5H7.716V405.58H6.716H5.716V452.5H6.716ZM6.716 405.58V406.58H15.824V405.58V404.58H6.716V405.58ZM15.824 405.58H14.824V416.62H15.824H16.824V405.58H15.824ZM15.824 416.62V417.62H16.284V416.62V415.62H15.824V416.62ZM16.284 416.62H15.284V452.5H16.284H17.284V416.62H16.284ZM16.284 452.5V451.5H6.716V452.5V453.5H16.284V452.5ZM38.364 452.5H39.364V421.864H38.364H37.364V452.5H38.364ZM38.364 421.864H39.364C39.364 418.548 38.6019 415.904 36.8631 414.165L36.156 414.872L35.4489 415.579C36.6542 416.784 37.364 418.802 37.364 421.864H38.364ZM36.156 414.872L36.8631 414.165C35.1486 412.45 32.7438 411.664 29.808 411.664V412.664V413.664C32.3922 413.664 34.2194 414.35 35.4489 415.579L36.156 414.872ZM29.808 412.664V411.664C27.0657 411.664 24.558 412.319 22.309 413.642L22.816 414.504L23.323 415.366C25.2447 414.236 27.3983 413.664 29.808 413.664V412.664ZM22.816 414.504L22.317 413.637C20.1253 414.899 18.4024 416.694 17.1531 418.995L18.032 419.472L18.9109 419.949C19.9922 417.957 21.4587 416.439 23.315 415.371L22.816 414.504ZM18.032 419.472L17.1591 418.984C15.8948 421.247 15.284 423.906 15.284 426.924H16.284H17.284C17.284 424.177 17.8386 421.868 18.9049 419.96L18.032 419.472ZM16.284 426.924L17.2781 426.815L16.0821 415.867L15.088 415.976L14.0939 416.085L15.2899 427.033L16.284 426.924ZM15.088 415.976L16.0038 416.378C17.4629 413.051 19.6395 410.444 22.5388 408.531L21.988 407.696L21.4372 406.861C18.2032 408.996 15.7798 411.909 14.1722 415.574L15.088 415.976ZM21.988 407.696L22.5313 408.536C25.4912 406.62 28.7972 405.66 32.476 405.66V404.66V403.66C28.4268 403.66 24.7408 404.724 21.4447 406.856L21.988 407.696ZM32.476 404.66V405.66C36.9337 405.66 40.3733 406.944 42.9089 409.423L43.608 408.708L44.3071 407.993C41.3227 405.075 37.3409 403.66 32.476 403.66V404.66ZM43.608 408.708L42.9168 409.431C45.5142 411.915 46.84 415.198 46.84 419.38H47.84H48.84C48.84 414.73 47.3445 410.898 44.2992 407.985L43.608 408.708ZM47.84 419.38H46.84V452.5H47.84H48.84V419.38H47.84ZM47.84 452.5V451.5H38.364V452.5V453.5H47.84V452.5ZM70.012 452.5H71.012V421.864H70.012H69.012V452.5H70.012ZM70.012 421.864H71.012C71.012 418.538 70.2143 415.888 68.4045 414.151L67.712 414.872L67.0195 415.593C68.2764 416.8 69.012 418.811 69.012 421.864H70.012ZM67.712 414.872L68.4191 414.165C66.7046 412.45 64.2998 411.664 61.364 411.664V412.664V413.664C63.9482 413.664 65.7754 414.35 67.0049 415.579L67.712 414.872ZM61.364 412.664V411.664C58.6784 411.664 56.2022 412.321 53.957 413.642L54.464 414.504L54.971 415.366C56.8965 414.233 59.0203 413.664 61.364 413.664V412.664ZM54.464 414.504L53.965 413.637C51.7781 414.896 50.0291 416.685 48.7198 418.976L49.588 419.472L50.4562 419.968C51.6002 417.966 53.1019 416.442 54.963 415.371L54.464 414.504ZM49.588 419.472L48.7151 418.984C47.4508 421.247 46.84 423.906 46.84 426.924H47.84H48.84C48.84 424.177 49.3946 421.868 50.4609 419.96L49.588 419.472ZM47.84 426.924L48.8248 426.75L46.8928 415.802L45.908 415.976L44.9232 416.15L46.8552 427.098L47.84 426.924ZM45.908 415.976L46.8178 416.391C48.3335 413.068 50.5971 410.459 53.6198 408.54L53.084 407.696L52.5482 406.852C49.1922 408.981 46.6718 411.892 44.9982 415.561L45.908 415.976ZM53.084 407.696L53.6126 408.545C56.6979 406.624 60.1321 405.66 63.94 405.66V404.66V403.66C59.7746 403.66 55.9714 404.72 52.5554 406.847L53.084 407.696ZM63.94 404.66V405.66C68.4561 405.66 71.9581 406.973 74.5567 409.515L75.256 408.8L75.9553 408.085C72.9112 405.107 68.8692 403.66 63.94 403.66V404.66ZM75.256 408.8L74.5648 409.523C77.1565 412.002 78.488 415.342 78.488 419.656H79.488H80.488C80.488 414.893 78.9981 410.996 75.9472 408.077L75.256 408.8ZM79.488 419.656H78.488V452.5H79.488H80.488V419.656H79.488ZM79.488 452.5V451.5H70.012V452.5V453.5H79.488V452.5ZM91.2374 452.5H90.2374V453.5H91.2374V452.5ZM91.2374 405.58V404.58H90.2374V405.58H91.2374ZM100.805 405.58H101.805V404.58H100.805V405.58ZM100.805 452.5V453.5H101.805V452.5H100.805ZM90.7774 396.38H89.7774V397.38H90.7774V396.38ZM90.7774 385.616V384.616H89.7774V385.616H90.7774ZM101.357 385.616H102.357V384.616H101.357V385.616ZM101.357 396.38V397.38H102.357V396.38H101.357ZM91.2374 452.5H92.2374V405.58H91.2374H90.2374V452.5H91.2374ZM91.2374 405.58V406.58H100.805V405.58V404.58H91.2374V405.58ZM100.805 405.58H99.8054V452.5H100.805H101.805V405.58H100.805ZM100.805 452.5V451.5H91.2374V452.5V453.5H100.805V452.5ZM90.7774 396.38H91.7774V385.616H90.7774H89.7774V396.38H90.7774ZM90.7774 385.616V386.616H101.357V385.616V384.616H90.7774V385.616ZM101.357 385.616H100.357V396.38H101.357H102.357V385.616H101.357ZM101.357 396.38V395.38H90.7774V396.38V397.38H101.357V396.38ZM120.682 450.292L120.158 451.144L120.169 451.151L120.682 450.292ZM112.402 441.552L111.519 442.023L111.526 442.034L112.402 441.552ZM112.402 416.436L111.525 415.954L111.523 415.959L112.402 416.436ZM120.682 407.788L120.169 406.929L120.169 406.929L120.682 407.788ZM142.578 406.776L142.146 407.678L142.146 407.678L142.578 406.776ZM149.846 412.664L150.643 412.061L150.643 412.061L149.846 412.664ZM153.526 421.588V422.588H154.699L154.513 421.429L153.526 421.588ZM144.51 421.588L143.534 421.805L143.708 422.588H144.51V421.588ZM140.462 414.964L139.828 415.738L139.834 415.743L139.84 415.747L140.462 414.964ZM125.65 414.504L126.204 415.336L126.204 415.336L125.65 414.504ZM120.958 420.208L121.87 420.618L121.87 420.618L120.958 420.208ZM120.958 437.688L121.873 437.286L121.873 437.286L120.958 437.688ZM125.65 443.576L125.078 444.396L125.086 444.402L125.095 444.408L125.65 443.576ZM140.462 443.208L141.069 444.002L141.073 444L140.462 443.208ZM144.602 436.584V435.584H143.8L143.626 436.367L144.602 436.584ZM153.618 436.584L154.602 436.763L154.816 435.584H153.618V436.584ZM149.754 445.416L148.965 444.801L148.961 444.807L148.956 444.813L149.754 445.416ZM142.486 451.304L142.918 452.206L142.486 451.304ZM132.642 453.42V452.42C128.326 452.42 124.52 451.417 121.194 449.433L120.682 450.292L120.169 451.151C123.836 453.338 128.003 454.42 132.642 454.42V453.42ZM120.682 450.292L121.205 449.44C117.86 447.386 115.22 444.602 113.278 441.07L112.402 441.552L111.526 442.034C113.631 445.862 116.511 448.905 120.158 451.144L120.682 450.292ZM112.402 441.552L113.284 441.081C111.408 437.564 110.458 433.529 110.458 428.948H109.458H108.458C108.458 433.813 109.47 438.18 111.519 442.023L112.402 441.552ZM109.458 428.948H110.458C110.458 424.367 111.408 420.365 113.281 416.913L112.402 416.436L111.523 415.959C109.47 419.745 108.458 424.084 108.458 428.948H109.458ZM112.402 416.436L113.278 416.918C115.219 413.388 117.856 410.638 121.194 408.647L120.682 407.788L120.169 406.929C116.516 409.109 113.632 412.124 111.526 415.954L112.402 416.436ZM120.682 407.788L121.194 408.647C124.522 406.662 128.298 405.66 132.55 405.66V404.66V403.66C127.969 403.66 123.833 404.744 120.169 406.929L120.682 407.788ZM132.55 404.66V405.66C136.163 405.66 139.355 406.341 142.146 407.678L142.578 406.776L143.01 405.874C139.913 404.39 136.419 403.66 132.55 403.66V404.66ZM142.578 406.776L142.146 407.678C144.951 409.022 147.246 410.884 149.048 413.267L149.846 412.664L150.643 412.061C148.642 409.414 146.092 407.351 143.01 405.874L142.578 406.776ZM149.846 412.664L149.048 413.267C150.841 415.638 152.01 418.456 152.538 421.747L153.526 421.588L154.513 421.429C153.938 417.85 152.653 414.719 150.643 412.061L149.846 412.664ZM153.526 421.588V420.588H144.51V421.588V422.588H153.526V421.588ZM144.51 421.588L145.486 421.371C144.826 418.402 143.36 415.989 141.084 414.181L140.462 414.964L139.84 415.747C141.734 417.251 142.967 419.254 143.534 421.805L144.51 421.588ZM140.462 414.964L141.095 414.19C138.859 412.361 136.045 411.48 132.734 411.48V412.48V413.48C135.678 413.48 138.016 414.255 139.828 415.738L140.462 414.964ZM132.734 412.48V411.48C129.86 411.48 127.301 412.201 125.095 413.672L125.65 414.504L126.204 415.336C128.046 414.108 130.21 413.48 132.734 413.48V412.48ZM125.65 414.504L125.095 413.672C122.898 415.136 121.218 417.192 120.046 419.798L120.958 420.208L121.87 420.618C122.905 418.318 124.353 416.57 126.204 415.336L125.65 414.504ZM120.958 420.208L120.046 419.798C118.871 422.408 118.302 425.468 118.302 428.948H119.302H120.302C120.302 425.681 120.836 422.914 121.87 420.618L120.958 420.208ZM119.302 428.948H118.302C118.302 432.37 118.872 435.425 120.042 438.09L120.958 437.688L121.873 437.286C120.835 434.921 120.302 432.15 120.302 428.948H119.302ZM120.958 437.688L120.042 438.09C121.211 440.753 122.886 442.869 125.078 444.396L125.65 443.576L126.222 442.756C124.365 441.462 122.912 439.652 121.873 437.286L120.958 437.688ZM125.65 443.576L125.095 444.408C127.305 445.881 129.896 446.6 132.826 446.6V445.6V444.6C130.236 444.6 128.043 443.969 126.204 442.744L125.65 443.576ZM132.826 445.6V446.6C136.017 446.6 138.785 445.749 141.069 444.002L140.462 443.208L139.854 442.414C137.968 443.856 135.645 444.6 132.826 444.6V445.6ZM140.462 443.208L141.073 444C143.413 442.194 144.916 439.779 145.578 436.801L144.602 436.584L143.626 436.367C143.061 438.909 141.804 440.91 139.851 442.416L140.462 443.208ZM144.602 436.584V437.584H153.618V436.584V435.584H144.602V436.584ZM153.618 436.584L152.634 436.405C152.047 439.632 150.821 442.423 148.965 444.801L149.754 445.416L150.542 446.031C152.612 443.38 153.962 440.283 154.602 436.763L153.618 436.584ZM149.754 445.416L148.956 444.813C147.154 447.196 144.859 449.058 142.054 450.402L142.486 451.304L142.918 452.206C146 450.729 148.55 448.666 150.551 446.019L149.754 445.416ZM142.486 451.304L142.054 450.402C139.259 451.741 136.127 452.42 132.642 452.42V453.42V454.42C136.394 454.42 139.825 453.688 142.918 452.206L142.486 451.304ZM162.171 452.5H161.171V453.5H162.171V452.5ZM162.171 405.58V404.58H161.171V405.58H162.171ZM171.279 405.58H172.279V404.58H171.279V405.58ZM171.279 417.264H170.279V418.264H171.279V417.264ZM171.739 417.264H172.739V416.264H171.739V417.264ZM171.739 452.5V453.5H172.739V452.5H171.739ZM171.739 428.028L170.745 428.135L172.739 428.028H171.739ZM170.543 416.896L169.579 416.629L169.528 416.813L169.549 417.003L170.543 416.896ZM176.247 407.788L175.635 406.997L176.247 407.788ZM188.851 405.028H189.851V404.378L189.257 404.114L188.851 405.028ZM188.851 414.044L188.479 414.972L189.851 415.521V414.044H188.851ZM187.563 413.86L187.452 414.854L187.507 414.86H187.563V413.86ZM175.143 417.356L174.427 416.658L174.417 416.668L175.143 417.356ZM162.171 452.5H163.171V405.58H162.171H161.171V452.5H162.171ZM162.171 405.58V406.58H171.279V405.58V404.58H162.171V405.58ZM171.279 405.58H170.279V417.264H171.279H172.279V405.58H171.279ZM171.279 417.264V418.264H171.739V417.264V416.264H171.279V417.264ZM171.739 417.264H170.739V452.5H171.739H172.739V417.264H171.739ZM171.739 452.5V451.5H162.171V452.5V453.5H171.739V452.5ZM171.739 428.028L172.733 427.921L171.537 416.789L170.543 416.896L169.549 417.003L170.745 428.135L171.739 428.028ZM170.543 416.896L171.507 417.163C172.565 413.339 174.365 410.506 176.858 408.579L176.247 407.788L175.635 406.997C172.732 409.24 170.728 412.48 169.579 416.629L170.543 416.896ZM176.247 407.788L176.858 408.579C179.365 406.643 182.364 405.66 185.907 405.66V404.66V403.66C181.967 403.66 178.526 404.763 175.635 406.997L176.247 407.788ZM185.907 404.66V405.66C187.316 405.66 188.105 405.791 188.445 405.942L188.851 405.028L189.257 404.114C188.493 403.775 187.319 403.66 185.907 403.66V404.66ZM188.851 405.028H187.851V414.044H188.851H189.851V405.028H188.851ZM188.851 414.044L189.222 413.116C188.744 412.924 188.168 412.86 187.563 412.86V413.86V414.86C188.062 414.86 188.344 414.918 188.479 414.972L188.851 414.044ZM187.563 413.86L187.673 412.866C187.073 412.799 186.359 412.768 185.539 412.768V413.768V414.768C186.314 414.768 186.949 414.798 187.452 414.854L187.563 413.86ZM185.539 413.768V412.768C180.773 412.768 177.008 414.009 174.427 416.658L175.143 417.356L175.859 418.054C177.939 415.919 181.104 414.768 185.539 414.768V413.768ZM175.143 417.356L174.417 416.668C171.908 419.313 170.739 423.16 170.739 428.028H171.739H172.739C172.739 423.451 173.839 420.183 175.868 418.044L175.143 417.356ZM204.02 450.292L203.51 451.152L203.521 451.158L204.02 450.292ZM195.556 441.552L194.677 442.028L194.68 442.034L195.556 441.552ZM195.556 416.252L194.69 415.753L194.683 415.764L195.556 416.252ZM204.02 407.788L204.515 408.657L204.519 408.654L204.02 407.788ZM229.32 407.788L228.821 408.654L228.832 408.661L229.32 407.788ZM237.692 416.252L236.813 416.729L236.819 416.74L237.692 416.252ZM237.692 441.552L236.813 441.076L236.81 441.081L237.692 441.552ZM229.32 450.292L229.819 451.158L229.83 451.152L229.32 450.292ZM224.076 443.484L223.527 442.648L223.516 442.656L224.076 443.484ZM229.136 437.596L230.035 438.034L230.035 438.034L229.136 437.596ZM226.928 416.896L226.183 417.563L226.191 417.571L226.198 417.579L226.928 416.896ZM206.32 416.896L205.583 416.22L205.575 416.229L206.32 416.896ZM204.112 437.596L203.205 438.016L203.209 438.025L203.213 438.034L204.112 437.596ZM209.172 443.484L208.623 444.32L208.634 444.327L209.172 443.484ZM216.624 453.42V452.42C211.989 452.42 207.965 451.411 204.519 449.426L204.02 450.292L203.521 451.158C207.312 453.343 211.691 454.42 216.624 454.42V453.42ZM204.02 450.292L204.53 449.432C201.065 447.376 198.37 444.593 196.432 441.07L195.556 441.552L194.68 442.034C196.79 445.871 199.738 448.914 203.51 451.152L204.02 450.292ZM195.556 441.552L196.436 441.076C194.499 437.497 193.52 433.431 193.52 428.856H192.52H191.52C191.52 433.726 192.565 438.125 194.677 442.028L195.556 441.552ZM192.52 428.856H193.52C193.52 424.216 194.5 420.188 196.429 416.74L195.556 416.252L194.683 415.764C192.564 419.553 191.52 423.928 191.52 428.856H192.52ZM195.556 416.252L196.422 416.751C198.421 413.284 201.115 410.591 204.515 408.657L204.02 407.788L203.526 406.919C199.81 409.033 196.862 411.983 194.69 415.753L195.556 416.252ZM204.02 407.788L204.519 408.654C207.965 406.669 211.989 405.66 216.624 405.66V404.66V403.66C211.691 403.66 207.312 404.737 203.521 406.922L204.02 407.788ZM216.624 404.66V405.66C221.323 405.66 225.377 406.67 228.821 408.654L229.32 407.788L229.819 406.922C226.026 404.736 221.616 403.66 216.624 403.66V404.66ZM229.32 407.788L228.832 408.661C232.287 410.593 234.941 413.278 236.813 416.729L237.692 416.252L238.571 415.775C236.518 411.989 233.591 409.031 229.808 406.915L229.32 407.788ZM237.692 416.252L236.819 416.74C238.748 420.188 239.728 424.216 239.728 428.856H240.728H241.728C241.728 423.928 240.684 419.553 238.565 415.764L237.692 416.252ZM240.728 428.856H239.728C239.728 433.431 238.749 437.497 236.813 441.076L237.692 441.552L238.572 442.028C240.683 438.125 241.728 433.726 241.728 428.856H240.728ZM237.692 441.552L236.81 441.081C234.934 444.598 232.273 447.378 228.81 449.432L229.32 450.292L229.83 451.152C233.605 448.913 236.525 445.866 238.574 442.023L237.692 441.552ZM229.32 450.292L228.821 449.426C225.377 451.41 221.323 452.42 216.624 452.42V453.42V454.42C221.616 454.42 226.026 453.344 229.819 451.158L229.32 450.292ZM216.624 445.6V446.6C219.677 446.6 222.363 445.85 224.636 444.312L224.076 443.484L223.516 442.656C221.619 443.939 219.337 444.6 216.624 444.6V445.6ZM224.076 443.484L224.625 444.32C226.935 442.802 228.737 440.696 230.035 438.034L229.136 437.596L228.237 437.158C227.082 439.526 225.51 441.345 223.527 442.648L224.076 443.484ZM229.136 437.596L230.035 438.034C231.34 435.358 231.976 432.258 231.976 428.764H230.976H229.976C229.976 432.016 229.385 434.805 228.237 437.158L229.136 437.596ZM230.976 428.764H231.976C231.976 423.553 230.574 419.327 227.658 416.213L226.928 416.896L226.198 417.579C228.68 420.23 229.976 423.916 229.976 428.764H230.976ZM226.928 416.896L227.673 416.229C224.831 413.057 221.118 411.48 216.624 411.48V412.48V413.48C220.594 413.48 223.75 414.847 226.183 417.563L226.928 416.896ZM216.624 412.48V411.48C212.187 411.48 208.48 413.06 205.583 416.22L206.32 416.896L207.057 417.572C209.557 414.844 212.72 413.48 216.624 413.48V412.48ZM206.32 416.896L205.575 416.229C202.735 419.4 201.364 423.615 201.364 428.764H202.364H203.364C203.364 423.977 204.631 420.28 207.065 417.563L206.32 416.896ZM202.364 428.764H201.364C201.364 432.252 201.967 435.345 203.205 438.016L204.112 437.596L205.019 437.176C203.927 434.818 203.364 432.023 203.364 428.764H202.364ZM204.112 437.596L203.213 438.034C204.511 440.696 206.313 442.802 208.623 444.32L209.172 443.484L209.721 442.648C207.738 441.345 206.166 439.526 205.011 437.158L204.112 437.596ZM209.172 443.484L208.634 444.327C211.011 445.846 213.684 446.6 216.624 446.6V445.6V444.6C214.044 444.6 211.749 443.944 209.71 442.641L209.172 443.484ZM249.636 452.5H248.636V453.5H249.636V452.5ZM249.636 405.58V404.58H248.636V405.58H249.636ZM258.744 405.58H259.744V404.58H258.744V405.58ZM258.744 416.62H257.744V417.62H258.744V416.62ZM259.204 416.62H260.204V415.62H259.204V416.62ZM259.204 452.5V453.5H260.204V452.5H259.204ZM281.284 452.5H280.284V453.5H281.284V452.5ZM279.076 414.872L278.368 415.579L278.368 415.579L279.076 414.872ZM265.736 414.504L266.235 415.371L266.243 415.366L265.736 414.504ZM260.952 419.472L261.825 419.96L261.83 419.949L260.952 419.472ZM259.204 426.924L258.209 427.033L260.204 426.924H259.204ZM258.008 415.976L257.092 415.574L256.984 415.819L257.013 416.085L258.008 415.976ZM264.908 407.696L264.364 406.856L264.357 406.861L264.908 407.696ZM286.528 408.708L285.828 409.423L285.836 409.431L286.528 408.708ZM290.76 452.5V453.5H291.76V452.5H290.76ZM312.932 452.5H311.932V453.5H312.932V452.5ZM310.632 414.872L309.924 415.579L309.932 415.586L309.939 415.593L310.632 414.872ZM297.384 414.504L297.883 415.371L297.891 415.366L297.384 414.504ZM292.508 419.472L291.639 418.976L291.635 418.984L292.508 419.472ZM290.76 426.924L289.775 427.098L291.76 426.924H290.76ZM288.828 415.976L287.918 415.561L287.789 415.844L287.843 416.15L288.828 415.976ZM296.004 407.696L295.475 406.847L295.468 406.852L296.004 407.696ZM318.176 408.8L317.476 409.515L317.484 409.523L318.176 408.8ZM322.408 452.5V453.5H323.408V452.5H322.408ZM249.636 452.5H250.636V405.58H249.636H248.636V452.5H249.636ZM249.636 405.58V406.58H258.744V405.58V404.58H249.636V405.58ZM258.744 405.58H257.744V416.62H258.744H259.744V405.58H258.744ZM258.744 416.62V417.62H259.204V416.62V415.62H258.744V416.62ZM259.204 416.62H258.204V452.5H259.204H260.204V416.62H259.204ZM259.204 452.5V451.5H249.636V452.5V453.5H259.204V452.5ZM281.284 452.5H282.284V421.864H281.284H280.284V452.5H281.284ZM281.284 421.864H282.284C282.284 418.548 281.521 415.904 279.783 414.165L279.076 414.872L278.368 415.579C279.574 416.784 280.284 418.802 280.284 421.864H281.284ZM279.076 414.872L279.783 414.165C278.068 412.45 275.663 411.664 272.728 411.664V412.664V413.664C275.312 413.664 277.139 414.35 278.368 415.579L279.076 414.872ZM272.728 412.664V411.664C269.985 411.664 267.478 412.319 265.229 413.642L265.736 414.504L266.243 415.366C268.164 414.236 270.318 413.664 272.728 413.664V412.664ZM265.736 414.504L265.237 413.637C263.045 414.899 261.322 416.694 260.073 418.995L260.952 419.472L261.83 419.949C262.912 417.957 264.378 416.439 266.234 415.371L265.736 414.504ZM260.952 419.472L260.079 418.984C258.814 421.247 258.204 423.906 258.204 426.924H259.204H260.204C260.204 424.177 260.758 421.868 261.824 419.96L260.952 419.472ZM259.204 426.924L260.198 426.815L259.002 415.867L258.008 415.976L257.013 416.085L258.209 427.033L259.204 426.924ZM258.008 415.976L258.923 416.378C260.382 413.051 262.559 410.444 265.458 408.531L264.908 407.696L264.357 406.861C261.123 408.996 258.699 411.909 257.092 415.574L258.008 415.976ZM264.908 407.696L265.451 408.536C268.411 406.62 271.717 405.66 275.396 405.66V404.66V403.66C271.346 403.66 267.66 404.724 264.364 406.856L264.908 407.696ZM275.396 404.66V405.66C279.853 405.66 283.293 406.944 285.828 409.423L286.528 408.708L287.227 407.993C284.242 405.075 280.26 403.66 275.396 403.66V404.66ZM286.528 408.708L285.836 409.431C288.434 411.915 289.76 415.198 289.76 419.38H290.76H291.76C291.76 414.73 290.264 410.898 287.219 407.985L286.528 408.708ZM290.76 419.38H289.76V452.5H290.76H291.76V419.38H290.76ZM290.76 452.5V451.5H281.284V452.5V453.5H290.76V452.5ZM312.932 452.5H313.932V421.864H312.932H311.932V452.5H312.932ZM312.932 421.864H313.932C313.932 418.538 313.134 415.888 311.324 414.151L310.632 414.872L309.939 415.593C311.196 416.8 311.932 418.811 311.932 421.864H312.932ZM310.632 414.872L311.339 414.165C309.624 412.45 307.219 411.664 304.284 411.664V412.664V413.664C306.868 413.664 308.695 414.35 309.924 415.579L310.632 414.872ZM304.284 412.664V411.664C301.598 411.664 299.122 412.321 296.877 413.642L297.384 414.504L297.891 415.366C299.816 414.233 301.94 413.664 304.284 413.664V412.664ZM297.384 414.504L296.885 413.637C294.698 414.896 292.949 416.685 291.639 418.976L292.508 419.472L293.376 419.968C294.52 417.966 296.021 416.442 297.882 415.371L297.384 414.504ZM292.508 419.472L291.635 418.984C290.37 421.247 289.76 423.906 289.76 426.924H290.76H291.76C291.76 424.177 292.314 421.868 293.38 419.96L292.508 419.472ZM290.76 426.924L291.744 426.75L289.812 415.802L288.828 415.976L287.843 416.15L289.775 427.098L290.76 426.924ZM288.828 415.976L289.737 416.391C291.253 413.068 293.517 410.459 296.539 408.54L296.004 407.696L295.468 406.852C292.112 408.981 289.591 411.892 287.918 415.561L288.828 415.976ZM296.004 407.696L296.532 408.545C299.617 406.624 303.052 405.66 306.86 405.66V404.66V403.66C302.694 403.66 298.891 404.72 295.475 406.847L296.004 407.696ZM306.86 404.66V405.66C311.376 405.66 314.878 406.973 317.476 409.515L318.176 408.8L318.875 408.085C315.831 405.107 311.789 403.66 306.86 403.66V404.66ZM318.176 408.8L317.484 409.523C320.076 412.002 321.408 415.342 321.408 419.656H322.408H323.408C323.408 414.893 321.918 410.996 318.867 408.077L318.176 408.8ZM322.408 419.656H321.408V452.5H322.408H323.408V419.656H322.408ZM322.408 452.5V451.5H312.932V452.5V453.5H322.408V452.5ZM334.157 452.5H333.157V453.5H334.157V452.5ZM334.157 405.58V404.58H333.157V405.58H334.157ZM343.725 405.58H344.725V404.58H343.725V405.58ZM343.725 452.5V453.5H344.725V452.5H343.725ZM333.697 396.38H332.697V397.38H333.697V396.38ZM333.697 385.616V384.616H332.697V385.616H333.697ZM344.277 385.616H345.277V384.616H344.277V385.616ZM344.277 396.38V397.38H345.277V396.38H344.277ZM334.157 452.5H335.157V405.58H334.157H333.157V452.5H334.157ZM334.157 405.58V406.58H343.725V405.58V404.58H334.157V405.58ZM343.725 405.58H342.725V452.5H343.725H344.725V405.58H343.725ZM343.725 452.5V451.5H334.157V452.5V453.5H343.725V452.5ZM333.697 396.38H334.697V385.616H333.697H332.697V396.38H333.697ZM333.697 385.616V386.616H344.277V385.616V384.616H333.697V385.616ZM344.277 385.616H343.277V396.38H344.277H345.277V385.616H344.277ZM344.277 396.38V395.38H333.697V396.38V397.38H344.277V396.38ZM352.865 452.5H351.865V453.5H352.865V452.5ZM352.865 445.784L352.069 445.179L351.865 445.447V445.784H352.865ZM380.557 409.352L381.371 408.771L380.582 407.667L379.761 408.747L380.557 409.352ZM383.317 413.216V414.216H385.26L384.131 412.635L383.317 413.216ZM353.693 413.216H352.693V414.216H353.693V413.216ZM353.693 405.58V404.58H352.693V405.58H353.693ZM389.849 405.58H390.849V404.58H389.849V405.58ZM389.849 412.296L390.645 412.902L390.849 412.633V412.296H389.849ZM362.249 448.544L361.44 449.131L362.23 450.221L363.045 449.15L362.249 448.544ZM359.581 444.864V443.864H357.621L358.772 445.451L359.581 444.864ZM390.585 444.864H391.585V443.864H390.585V444.864ZM390.585 452.5V453.5H391.585V452.5H390.585ZM352.865 452.5H353.865V445.784H352.865H351.865V452.5H352.865ZM352.865 445.784L353.661 446.389L381.353 409.957L380.557 409.352L379.761 408.747L352.069 445.179L352.865 445.784ZM380.557 409.352L379.744 409.933L382.504 413.797L383.317 413.216L384.131 412.635L381.371 408.771L380.557 409.352ZM383.317 413.216V412.216H353.693V413.216V414.216H383.317V413.216ZM353.693 413.216H354.693V405.58H353.693H352.693V413.216H353.693ZM353.693 405.58V406.58H389.849V405.58V404.58H353.693V405.58ZM389.849 405.58H388.849V412.296H389.849H390.849V405.58H389.849ZM389.849 412.296L389.054 411.69L361.454 447.938L362.249 448.544L363.045 449.15L390.645 412.902L389.849 412.296ZM362.249 448.544L363.059 447.957L360.391 444.277L359.581 444.864L358.772 445.451L361.44 449.131L362.249 448.544ZM359.581 444.864V445.864H390.585V444.864V443.864H359.581V444.864ZM390.585 444.864H389.585V452.5H390.585H391.585V444.864H390.585ZM390.585 452.5V451.5H352.865V452.5V453.5H390.585V452.5ZM406.08 450.292L405.574 451.155L405.581 451.158L406.08 450.292ZM397.708 441.644L396.832 442.126L396.832 442.126L397.708 441.644ZM397.616 416.252L396.74 415.77L396.737 415.775L397.616 416.252ZM406.08 407.696L406.568 408.569L406.568 408.569L406.08 407.696ZM430.276 407.604L429.766 408.464L429.776 408.47L429.785 408.475L430.276 407.604ZM438.004 415.608L437.116 416.068L437.123 416.08L438.004 415.608ZM440.672 429.96L439.676 429.869L439.672 429.915V429.96H440.672ZM440.488 431.892V432.892H441.323L441.472 432.071L440.488 431.892ZM401.112 431.892H400.112V432.892H401.112V431.892ZM401.112 424.716V423.716H400.112V424.716H401.112ZM433.772 424.716L434.538 425.359L435.916 423.716H433.772V424.716ZM431.38 427.568H430.38V430.316L432.146 428.211L431.38 427.568ZM427.976 416.068L428.734 415.416L428.734 415.416L427.976 416.068ZM408.104 416.62L407.345 415.969L407.344 415.971L408.104 416.62ZM408.104 441.46L407.337 442.102L407.345 442.111L408.104 441.46ZM425.952 444.312L426.431 445.19L426.441 445.184L426.451 445.179L425.952 444.312ZM430.46 439.252V438.252H429.81L429.546 438.846L430.46 439.252ZM439.476 439.252L440.421 439.58L440.882 438.252H439.476V439.252ZM431.656 449.648L431.092 448.822L431.085 448.827L431.656 449.648ZM418.592 453.42V452.42C414.021 452.42 410.027 451.412 406.579 449.426L406.08 450.292L405.581 451.158C409.37 453.342 413.718 454.42 418.592 454.42V453.42ZM406.08 450.292L406.586 449.429C403.187 447.437 400.523 444.687 398.584 441.162L397.708 441.644L396.832 442.126C398.941 445.961 401.858 448.976 405.574 451.155L406.08 450.292ZM397.708 441.644L398.584 441.162C396.652 437.649 395.672 433.587 395.672 428.948H394.672H393.672C393.672 433.877 394.716 438.279 396.832 442.126L397.708 441.644ZM394.672 428.948H395.672C395.672 424.24 396.625 420.177 398.495 416.729L397.616 416.252L396.737 415.775C394.682 419.564 393.672 423.966 393.672 428.948H394.672ZM397.616 416.252L398.492 416.734C400.427 413.216 403.115 410.5 406.568 408.569L406.08 407.696L405.592 406.823C401.808 408.94 398.853 411.928 396.74 415.77L397.616 416.252ZM406.08 407.696L406.568 408.569C410.02 406.638 413.988 405.66 418.5 405.66V404.66V403.66C413.689 403.66 409.378 404.706 405.592 406.823L406.08 407.696ZM418.5 404.66V405.66C422.892 405.66 426.634 406.608 429.766 408.464L430.276 407.604L430.786 406.744C427.294 404.674 423.186 403.66 418.5 403.66V404.66ZM430.276 407.604L429.785 408.475C432.989 410.281 435.427 412.806 437.116 416.068L438.004 415.608L438.892 415.148C437.024 411.54 434.31 408.73 430.767 406.733L430.276 407.604ZM438.004 415.608L437.123 416.08C438.87 419.342 439.764 423.251 439.764 427.844H440.764H441.764C441.764 422.991 440.818 418.743 438.886 415.136L438.004 415.608ZM440.764 427.844H439.764C439.764 428.552 439.735 429.227 439.676 429.869L440.672 429.96L441.668 430.051C441.732 429.343 441.764 428.608 441.764 427.844H440.764ZM440.672 429.96H439.672C439.672 430.507 439.617 431.091 439.504 431.713L440.488 431.892L441.472 432.071C441.604 431.344 441.672 430.64 441.672 429.96H440.672ZM440.488 431.892V430.892H401.112V431.892V432.892H440.488V431.892ZM401.112 431.892H402.112V424.716H401.112H400.112V431.892H401.112ZM401.112 424.716V425.716H433.772V424.716V423.716H401.112V424.716ZM433.772 424.716L433.006 424.073L430.614 426.925L431.38 427.568L432.146 428.211L434.538 425.359L433.772 424.716ZM431.38 427.568H432.38C432.38 422.404 431.216 418.301 428.734 415.416L427.976 416.068L427.218 416.72C429.274 419.11 430.38 422.673 430.38 427.568H431.38ZM427.976 416.068L428.734 415.416C426.243 412.521 422.787 411.112 418.5 411.112V412.112V413.112C422.31 413.112 425.171 414.341 427.218 416.72L427.976 416.068ZM418.5 412.112V411.112C413.886 411.112 410.131 412.718 407.345 415.969L408.104 416.62L408.863 417.271C411.229 414.511 414.404 413.112 418.5 413.112V412.112ZM408.104 416.62L407.344 415.971C404.626 419.152 403.332 423.522 403.332 428.948H404.332H405.332C405.332 423.825 406.553 419.976 408.864 417.269L408.104 416.62ZM404.332 428.948H403.332C403.332 434.434 404.625 438.861 407.337 442.102L408.104 441.46L408.871 440.818C406.554 438.049 405.332 434.134 405.332 428.948H404.332ZM408.104 441.46L407.345 442.111C410.14 445.372 413.993 446.968 418.776 446.968V445.968V444.968C414.482 444.968 411.22 443.559 408.863 440.809L408.104 441.46ZM418.776 445.968V446.968C421.671 446.968 424.234 446.388 426.431 445.19L425.952 444.312L425.473 443.434C423.623 444.444 421.402 444.968 418.776 444.968V445.968ZM425.952 444.312L426.451 445.179C428.665 443.904 430.31 442.053 431.374 439.658L430.46 439.252L429.546 438.846C428.648 440.867 427.287 442.39 425.453 443.445L425.952 444.312ZM430.46 439.252V440.252H439.476V439.252V438.252H430.46V439.252ZM439.476 439.252L438.531 438.924C437.065 443.148 434.586 446.435 431.092 448.822L431.656 449.648L432.22 450.474C436.086 447.832 438.821 444.188 440.421 439.58L439.476 439.252ZM431.656 449.648L431.085 448.827C427.659 451.208 423.511 452.42 418.592 452.42V453.42V454.42C423.854 454.42 428.416 453.118 432.227 450.469L431.656 449.648Z" fill="#00B1D3" mask="url(#path-11-outside-1_900_134954)"/>
</svg>